<svg width="12" height="15" viewBox="0 0 12 15" version="1.1" xmlns="http://www.w3.org/2000/svg" xmlns:xlink="http://www.w3.org/1999/xlink">
<title>Shape</title>
<desc>Created using Figma</desc>
<g id="Canvas" transform="translate(-23634 -6028)">
<g id="Shape">
<use xlink:href="#path0_fill" transform="matrix(-1.83697e-16 1 -1 -1.83697e-16 23645.6 6028.65)" fill="#333333"/>
</g>
</g>
<defs>
<path id="path0_fill" fill-rule="evenodd" d="M 0.7 6.34963L 11.6102 6.34963L 7.8554 10.1044C 7.58205 10.3778 7.58205 10.8211 7.85523 11.0942C 8.12858 11.3676 8.57203 11.3676 8.84538 11.0942L 13.7949 6.14453C 13.8274 6.11198 13.8565 6.07611 13.882 6.03796C 13.8938 6.02028 13.902 6.00121 13.9122 5.98283C 13.9237 5.96113 13.937 5.94048 13.9463 5.91756C 13.9563 5.89393 13.9619 5.86943 13.9689 5.84493C 13.9746 5.82551 13.9821 5.80696 13.9862 5.78701C 13.9953 5.74151 14 5.69566 14 5.64963C 14 5.64911 13.9998 5.64858 13.9998 5.64806C 13.9996 5.60273 13.9951 5.55723 13.9862 5.51261C 13.982 5.49161 13.9741 5.47218 13.968 5.45153C 13.9611 5.42826 13.9559 5.40463 13.9465 5.38206C 13.9363 5.35773 13.9227 5.33568 13.9101 5.31276C 13.9006 5.29561 13.8931 5.27811 13.8822 5.26166C 13.8567 5.22298 13.8273 5.18693 13.7945 5.15421L 8.8452 0.205034C 8.57185 -0.0683156 8.12858 -0.0683156 7.85523 0.204859C 7.58187 0.478209 7.58187 0.921484 7.85523 1.19501L 11.61 4.94963L 0.7 4.94963C 0.313425 4.94963 0 5.26306 0 5.64963C 0 6.03621 0.313425 6.34963 0.7 6.34963Z"/>
</defs>
</svg>
