<?xml version="1.0" encoding="UTF-8"?>
<svg width="104px" height="112px" viewBox="0 0 104 112" version="1.1" xmlns="http://www.w3.org/2000/svg" xmlns:xlink="http://www.w3.org/1999/xlink">
    <!-- Generator: sketchtool 49.1 (51147) - http://www.bohemiancoding.com/sketch -->
    <title>9FC581E7-C96E-4A5E-BE39-1F79D0DA2273</title>
    <desc>Created with sketchtool.</desc>
    <defs></defs>
    <g id="Symbols" stroke="none" stroke-width="1" fill="none" fill-rule="evenodd">
        <g id="ico_advant_1">
            <ellipse id="Oval-6" fill="#F3F3F5" cx="46.5" cy="59" rx="45.5" ry="44"></ellipse>
            <g id="noun_1016575_cc" transform="translate(4.000000, 4.000000)" fill="#333333" fill-rule="nonzero">
                <path d="M4.4,30 L22.6,30 C23.3742,30 24,29.3528889 24,28.5555556 L24,25.6666667 C24,21.1932222 21.2854,19.7401111 18.7402,19.9004444 C17.5852,18.1093333 15.628,17 13.5,17 C10.7854,17 8.4446,18.7882222 7.5794,21.3434444 C7.452,21.3362222 7.326,21.3333333 7.2,21.3333333 C4.9236,21.3333333 3,23.9795556 3,27.1111111 L3,28.5555556 C3,29.3528889 3.6258,30 4.4,30 Z M7.2,24.2222222 C7.5514,24.2222222 7.9266,24.2655556 8.3774,24.3608889 C8.7638,24.4403333 9.1628,24.3507778 9.4806,24.111 C9.7984,23.8712222 10.0028,23.5057778 10.0462,23.1027778 C10.2422,21.2712222 11.7262,19.8888889 13.5,19.8888889 C14.886,19.8888889 16.1446,20.7396667 16.7032,22.0555556 C16.9734,22.6925556 17.6454,23.0406667 18.3048,22.8817778 C18.5988,22.8124444 18.8578,22.7777778 19.1,22.7777778 C19.6194,22.7777778 21.2,22.7777778 21.2,25.6666667 L21.2,27.1111111 L5.8,27.1111111 C5.8,25.3431111 6.7842,24.2222222 7.2,24.2222222 Z" id="Shape"></path>
                <path d="M80.7692308,18 C78.4167692,18 76.3190769,19.16875 75.264,20.932875 C74.8084615,20.811875 74.3321538,20.75 73.8461538,20.75 C71.1738462,20.75 69,22.60075 69,24.875 L69,27.625 C69,28.384 69.6189231,29 70.3846154,29 L85.6153846,29 C86.3810769,29 87,28.384 87,27.625 L87,23.5 C87,20.46675 84.2044615,18 80.7692308,18 Z M84.2307692,26.25 L71.7692308,26.25 L71.7692308,24.875 C71.7692308,24.142125 72.7398462,23.5 73.8461538,23.5 C74.5010769,23.5 74.9746154,23.71725 75.2598462,23.900125 C75.642,24.144875 76.1196923,24.19025 76.542,24.017 C76.9629231,23.845125 77.2703077,23.478 77.3672308,23.036625 C77.6538462,21.7125 79.0855385,20.75 80.7692308,20.75 C82.6786154,20.75 84.2307692,21.983375 84.2307692,23.5 L84.2307692,26.25 Z" id="Shape"></path>
                <path d="M22.9363277,32.6886 C22.5807217,33.103 22.4995204,33.6882 22.7291242,34.1852 C22.9573281,34.6808 23.4529365,35 24.0003457,35 L33.7893109,35 L32.5642902,44.8 L24.0003457,44.8 C23.485137,44.8 23.011929,45.0828 22.7669249,45.5364 L3.16659418,81.9364 C2.93419026,82.3704 2.94539045,82.8954 3.1973947,83.3182 C3.44939896,83.741 3.90720668,84 4.40001499,84 L85.601385,84 C86.0941933,84 86.550601,83.741 86.8026053,83.3182 C87.0546095,82.8954 87.0658097,82.3704 86.8334058,81.9364 L67.2330751,45.5364 C66.989471,45.0828 66.516263,44.8 66.0010543,44.8 L57.4371098,44.8 L56.2120892,35 L67.401078,35 C67.9666875,35 68.4790961,34.6584 68.6946998,34.1362 C68.9117034,33.6126 68.7913014,33.0106 68.3908947,32.6102 C67.8448854,32.0642 66.9614705,30.9148 65.9394533,29.582 C64.6808321,27.9426 63.1912069,26.0036 61.5069785,24.0772 C63.3018088,23.66 64.6220311,22.1424 64.7452331,20.2804 L65.9982543,1.4924 C66.0248547,1.106 65.8876524,0.7266 65.623048,0.4424 C65.3584435,0.161 64.9874372,0 64.6010307,0 L59.0009362,0 C58.2813241,0 57.6793139,0.5446 57.6079127,1.26 L56.4598934,12.74 C56.3884921,13.4582 55.789282,14 55.0682699,14 L51.2448054,14 C52.5804279,12.5118 53.4008417,10.5532 53.4008417,8.4 C53.4008417,3.7674 49.6333782,0 45.0007,0 C40.3680218,0 36.6005583,3.7674 36.6005583,8.4 C36.6005583,10.5532 37.4209721,12.5118 38.7565947,14 L34.9345302,14 C34.212118,14 33.6143079,13.4582 33.5429067,12.74 L32.3934873,1.26 C32.3220861,0.5446 31.7200759,0 31.0004638,0 L25.4003693,0 C25.0139628,0 24.6429565,0.161 24.3783521,0.4438 C24.1151476,0.7266 23.9779453,1.1074 24.0031457,1.4938 L25.2561669,20.2818 C25.3863691,22.2348 26.8255934,23.8238 28.7982266,24.1514 L30.5692565,24.3922 C27.8672109,27.0368 25.2351665,30.0076 22.9363277,32.6886 Z M6.74365454,81.2 L16.256815,63.5334 L24.7003575,68.4124 C25.1301648,68.6602 25.6635738,68.663 26.094781,68.4152 L35.2005347,63.2128 L44.3062883,68.4152 C44.7360955,68.6616 45.2667045,68.6616 45.6951117,68.4152 L54.8008654,63.2128 L63.906619,68.4152 C64.1208226,68.5384 64.3616267,68.6 64.6010307,68.6 C64.8432348,68.6 65.0854389,68.537 65.3010425,68.4124 L73.744585,63.5334 L83.2577455,81.2 L6.74365454,81.2 Z M72.4159626,61.068 L64.5968306,65.5858 L55.4952771,60.3848 C55.0654698,60.1384 54.5348609,60.1384 54.1064536,60.3848 L45.0007,65.5872 L35.8949464,60.3848 C35.6807428,60.2616 35.4399387,60.2 35.2005347,60.2 C34.9611306,60.2 34.7203266,60.2616 34.5061229,60.3848 L25.4045694,65.5858 L17.5854375,61.068 L24.8375598,47.6 L33.800511,47.6 L40.8006291,47.6 L49.2007709,47.6 L56.200889,47.6 L65.1638402,47.6 L72.4159626,61.068 Z M42.5940594,44.8 L44.6954949,36.4 L45.3087052,36.4 L47.4101407,44.8 L42.5940594,44.8 Z M64.4204277,32.2 L55.9334845,32.2 L54.9730683,24.9984 L58.1749223,24.563 C60.3043582,26.838 62.18599,29.2894 63.7190158,31.2858 C63.96402,31.6064 64.1978239,31.9116 64.4204277,32.2 Z M39.4006055,8.4 C39.4006055,5.3116 41.9122479,2.8 45.0007,2.8 C48.0891521,2.8 50.6007945,5.3116 50.6007945,8.4 C50.6007945,11.4884 48.0891521,14 45.0007,14 C41.9122479,14 39.4006055,11.4884 39.4006055,8.4 Z M28.050614,20.0956 L26.8969946,2.8 L29.7320424,2.8 L30.7540596,13.0172 C30.9710633,15.1732 32.7672936,16.8 34.9345302,16.8 L55.0668698,16.8 C57.2341064,16.8 59.0303367,15.1732 59.2445403,13.0186 L60.2679576,2.8 L63.1030054,2.8 L61.950786,20.0956 C61.9087853,20.7466 61.4285772,21.2758 60.825167,21.378 L53.2118386,22.414 C53.0214353,22.4392 52.8450324,22.5036 52.6882297,22.596 C52.6504291,22.6184 52.6252287,22.6576 52.5902281,22.6828 C52.4810262,22.7626 52.3704244,22.8438 52.289223,22.9502 C52.2514223,22.9992 52.2360221,23.0636 52.2052216,23.1182 C52.1478206,23.219 52.0820195,23.3156 52.051219,23.429 C52.0302186,23.506 52.0414188,23.5914 52.0330187,23.6726 C52.0232185,23.7734 51.9980181,23.8714 52.0106183,23.975 L52.0120183,23.9862 C52.0120183,23.9862 52.0120183,23.9862 52.0120183,23.9862 L52.0134183,23.996 L54.6146622,44.8 L50.2941893,44.8 L47.7573465,34.6598 C47.6019439,34.0368 47.0433345,33.6 46.4007236,33.6 L43.6006764,33.6 C42.9580655,33.6 42.3994561,34.0368 42.2426535,34.6598 L39.7072107,44.8 L35.3867378,44.8 L37.9865817,23.996 L37.9879817,23.9862 C37.9879817,23.9862 37.9879817,23.9862 37.9879817,23.9862 L37.9893817,23.975 C38.0019819,23.87 37.9767815,23.7734 37.9669813,23.6726 C37.9585812,23.5914 37.9711814,23.506 37.948781,23.429 C37.9179805,23.3156 37.8521794,23.219 37.7947784,23.1182 C37.7639779,23.0636 37.7485777,23.0006 37.710777,22.9516 C37.6295756,22.8452 37.5189738,22.764 37.4097719,22.6842 C37.3733713,22.6576 37.3495709,22.6198 37.3117703,22.5974 C37.1563677,22.505 36.9799647,22.442 36.7881614,22.4154 L33.8481118,22.015 C33.8481118,22.015 33.8467118,22.015 33.8467118,22.015 L29.2140337,21.385 C28.5728228,21.2758 28.0926147,20.7466 28.050614,20.0956 Z M34.4011212,24.913 L35.0283318,24.9984 L34.0679156,32.2 L27.0663974,32.2 C29.2826348,29.6814 31.7004756,27.0704 34.1141163,24.8752 L34.4011212,24.913 Z" id="Shape"></path>
            </g>
        </g>
    </g>
</svg>