<?xml version="1.0" encoding="UTF-8"?>
<svg width="108px" height="83px" viewBox="0 0 108 83" version="1.1" xmlns="http://www.w3.org/2000/svg" xmlns:xlink="http://www.w3.org/1999/xlink">
    <!-- Generator: sketchtool 49.1 (51147) - http://www.bohemiancoding.com/sketch -->
    <title>696F3FFF-3933-434B-877E-05A28774F25B</title>
    <desc>Created with sketchtool.</desc>
    <defs>
        <path d="M35.1676409,-6.33196356 L81.6429683,30.0834384 C85.9902669,33.4897324 86.7531019,39.7752612 83.3468079,44.1225598 C82.7887304,44.8348089 82.1365652,45.4680182 81.408169,46.00485 L34.9328417,80.2574116 C30.4869875,83.5340296 24.2266869,82.5861764 20.950069,78.1403222 C19.6833587,76.4215961 19,74.3425623 19,72.2074806 L19,1.539517 C19,-3.9833305 23.4771525,-8.460483 29,-8.460483 C31.2360324,-8.460483 33.4075523,-7.71106805 35.1676409,-6.33196356 Z" id="path-1"></path>
    </defs>
    <g id="Page-1" stroke="none" stroke-width="1" fill="none" fill-rule="evenodd">
        <g id="07_Distrib" transform="translate(-1207.000000, -624.000000)">
            <g id="FirstBlock" transform="translate(358.000000, 632.000000)">
                <g id="GetConsultation" transform="translate(832.000000, 0.000000)">
                    <g id="Aerow-Copy" transform="translate(16.000000, 0.000000)">
                        <g id="Rectangle-11" transform="translate(55.500000, 36.500000) rotate(-270.000000) translate(-55.500000, -36.500000) ">
                            <use fill="#EE64A4" fill-rule="evenodd" xlink:href="#path-1"></use>
                            <path stroke="#FFFFFF" stroke-width="8" d="M37.6346972,-9.48055578 L84.1100246,26.9348462 C90.1962427,31.7036578 91.2642118,40.503398 86.4954002,46.5896162 C85.7140916,47.5867649 84.8010603,48.4732579 83.7813057,49.2248224 L37.3059783,83.477384 C31.0817825,88.0646492 22.3173617,86.7376547 17.7300965,80.5134589 C15.9567022,78.1072423 15,75.1965951 15,72.2074806 L15,1.539517 C15,-6.1924695 21.2680135,-12.460483 29,-12.460483 C32.1304454,-12.460483 35.1705732,-11.4113021 37.6346972,-9.48055578 Z"></path>
                        </g>
                    </g>
                </g>
            </g>
        </g>
    </g>
</svg>