<?xml version="1.0" encoding="UTF-8"?>
<svg width="104px" height="112px" viewBox="0 0 104 112" version="1.1" xmlns="http://www.w3.org/2000/svg" xmlns:xlink="http://www.w3.org/1999/xlink">
    <!-- Generator: sketchtool 49.1 (51147) - http://www.bohemiancoding.com/sketch -->
    <title>56B8F2B9-5496-49D9-A611-6B8F7BB5790A</title>
    <desc>Created with sketchtool.</desc>
    <defs></defs>
    <g id="Symbols" stroke="none" stroke-width="1" fill="none" fill-rule="evenodd">
        <g id="icon_advantage_4">
            <ellipse id="Oval-6-Copy-2" fill="#F3F3F5" cx="45.5" cy="60" rx="45.5" ry="44"></ellipse>
            <g id="Group" transform="translate(7.000000, 2.000000)" fill="#333333" fill-rule="nonzero">
                <path d="M87.5224479,2.20408517 C86.1773757,0.589272251 84.0252603,-0.218134208 81.8731448,0.0510012786 C76.6273634,0.992975481 59.5449469,4.89544003 43.6730953,18.8904853 C33.1815325,14.7188853 23.2279985,15.7954272 16.9061593,22.1201112 C15.2920727,23.7349241 14.0815077,25.6188725 13.1399572,27.7719564 C12.8709428,28.3102273 13.00545,28.8484983 13.4089717,29.2522015 C13.8124933,29.6559048 14.3505222,29.7904725 14.888551,29.6559048 C20.5378541,27.6373886 26.7251861,27.7719564 33.0470252,30.059608 C32.912518,30.1941757 32.7780108,30.4633112 32.6435036,30.597879 C31.7019531,31.6744209 31.8364603,33.6929371 33.1815325,34.9040468 L35.7371696,37.4608339 L31.1639242,42.0361371 C29.8188521,43.3818146 30.0878665,45.9386017 31.9709675,47.8225501 L41.6554871,57.3768599 C43.5385881,59.2608083 45.959718,59.5299438 47.3047902,58.1842663 L51.8780355,53.6089631 L54.5681799,56.3003179 C55.7787448,57.5114276 57.7963531,57.7805631 58.8724108,56.7040212 C59.006918,56.5694534 59.1414252,56.4348857 59.2759324,56.3003179 C61.1590335,61.6830276 61.2935407,67.4694406 59.5449469,74.3323955 C59.4104397,74.8706665 59.5449469,75.4089374 59.9484685,75.6780729 C60.3519902,75.9472084 60.890019,76.0817762 61.2935407,75.9472084 C63.4456561,75.0052342 65.4632644,73.7941245 66.9428438,72.1793116 C73.2646829,65.8546277 74.4752479,55.8966147 70.171017,45.4003307 C84.0252603,29.6559048 87.9259695,12.5658014 88.86752,7.31765941 C89.2710417,5.43371101 88.7330128,3.68433034 87.5224479,2.20408517 Z M45.1526747,56.1657502 C45.0181675,56.3003179 44.076617,56.1657502 43.2695737,55.3583437 L33.5850541,45.804034 C32.912518,45.1311952 32.7780108,44.4583565 32.7780108,44.189221 C32.7780108,44.0546533 32.7780108,43.9200855 32.7780108,43.9200855 L37.3512562,39.3447823 L49.7259201,51.5904469 L45.1526747,56.1657502 Z M17.0406665,26.2917112 C17.5786954,25.4843047 18.1167242,24.811466 18.7892603,24.1386273 C24.0350418,18.8904853 32.5089964,17.6793756 41.5209799,21.0435692 C39.5033716,23.0620854 38.8308356,23.7349241 34.7956191,28.0410919 C28.7427943,25.6188725 22.6899696,25.0806015 17.0406665,26.2917112 Z M56.8548025,54.685505 C56.7202953,54.685505 56.4512809,54.5509373 56.1822665,54.2818018 L34.7956191,33.1546661 C34.5266046,32.8855306 34.3920974,32.4818274 34.3920974,32.4818274 C35.6026624,31.1361499 41.3864727,24.811466 44.8836603,21.5818402 C44.8836603,21.5818402 44.8836603,21.5818402 44.8836603,21.5818402 C54.5681799,12.7003691 64.9252355,7.99049813 72.4576396,5.43371101 C74.2062335,11.3546917 77.9724355,15.1225885 83.7562458,16.6028337 C77.4344066,34.769479 68.1534087,43.7855178 56.8548025,54.685505 C56.8548025,54.685505 56.8548025,54.685505 56.8548025,54.685505 Z M64.9252355,70.1607955 C64.2526994,70.8336342 63.4456561,71.5064729 62.5041056,72.0447439 C63.7146706,65.4509245 63.1766417,59.6645115 61.0245263,54.147234 C61.0245263,54.147234 61.1590335,54.0126663 61.1590335,54.0126663 C64.9252355,50.2447695 65.0597427,50.3793372 67.8843943,47.4188469 C71.3815819,56.4348857 70.3055242,64.7780857 64.9252355,70.1607955 Z M86.3118829,6.77938844 C86.0428685,8.25963361 85.5048396,10.8164207 84.5632891,13.9114788 C84.5632891,13.9114788 84.5632891,13.9114788 84.4287819,13.9114788 C79.5865221,12.7003691 76.4928561,9.60531104 75.0132768,4.4917368 C78.2414499,3.5497626 80.7970871,3.01149163 82.2766664,2.74235614 C82.4111737,2.74235614 82.6801881,2.74235614 82.8146953,2.74235614 C83.7562458,2.74235614 84.8323035,3.14605937 85.3703324,3.95346583 C86.1773757,4.76087229 86.4463901,5.83741423 86.3118829,6.77938844 Z" id="Shape"></path>
                <path d="M33.8061691,54.087576 C31.0353778,51.3041413 26.4173921,51.3041413 23.6466007,54.087576 C20.0841547,57.6662776 17.1814209,68.8000162 17.0494784,69.3301942 C16.917536,69.7278277 17.0494784,70.2580058 17.4453058,70.6556393 C17.8411331,71.0532728 18.2369604,71.0532728 18.7647302,70.9207283 C19.9522122,70.5230948 30.9034353,67.2094821 33.9381116,64.293503 C36.708903,61.5100683 36.708903,56.8710106 33.8061691,54.087576 Z M31.9589749,62.4378799 C30.2437231,64.1609585 24.1743705,66.4142151 20.2160971,67.7396601 C21.4035792,63.8958694 23.3827159,58.1964557 25.493795,56.0757436 C27.2090468,54.352665 30.1117806,54.352665 31.9589749,56.0757436 C33.8061691,57.7988222 33.8061691,60.5822568 31.9589749,62.4378799 Z" id="Shape"></path>
                <path d="M34.6409367,72.087576 C31.0815265,75.6662776 28.1812663,86.8000162 28.0494363,87.3301942 C27.9176062,87.7278277 28.0494363,88.2580058 28.4449263,88.6556393 C28.8404163,89.0532728 29.2359063,89.0532728 29.7632264,88.9207283 C30.9496964,88.5230948 41.8915872,85.2094821 44.9236774,82.293503 C47.6921075,79.5100683 47.6921075,75.0035551 44.9236774,72.087576 C42.0234172,69.3041413 37.4093669,69.3041413 34.6409367,72.087576 Z M42.9462272,80.3053354 C41.2324371,82.028414 35.1682567,84.2816706 31.2133565,85.6071156 C32.3998265,81.7633249 34.3772767,76.0639112 36.4865568,73.9431991 C38.2003469,72.2201205 41.1006071,72.2201205 42.9462272,73.9431991 C44.6600173,75.6662776 44.6600173,78.5822568 42.9462272,80.3053354 Z" id="Shape"></path>
                <path d="M16.8061691,43.087576 C14.0353778,40.3041413 9.41739213,40.3041413 6.64660075,43.087576 C3.08415469,46.6662776 0.181420864,57.8000162 0.0494784175,58.3301942 C-0.0824640291,58.7278277 0.0494784175,59.2580058 0.445305757,59.6556393 C0.841133097,60.0532728 1.23696044,60.0532728 1.76473022,59.9207283 C2.95221224,59.5230948 13.9034353,56.2094821 16.9381116,53.293503 C19.708903,50.5100683 19.708903,45.8710106 16.8061691,43.087576 Z M14.9589749,51.4378799 C13.2437231,53.1609585 7.17437053,55.4142151 3.21609714,56.7396601 C4.40357915,52.8958694 6.38271585,47.1964557 8.493795,45.0757436 C10.2090468,43.352665 13.1117806,43.352665 14.9589749,45.0757436 C16.8061691,46.7988222 16.8061691,49.5822568 14.9589749,51.4378799 Z" id="Shape"></path>
                <path d="M74.4235669,22.5483871 C76.5254777,20.6129032 76.5254777,17.3870968 74.4235669,15.4516129 C72.3216561,13.516129 68.6783439,13.516129 66.5764331,15.4516129 C64.4745223,17.3870968 64.4745223,20.6129032 66.5764331,22.5483871 C68.6783439,24.483871 72.1815287,24.483871 74.4235669,22.5483871 Z M68.5382166,17.2580645 C69.6592357,16.2258065 71.3407643,16.2258065 72.3216561,17.2580645 C73.3025478,18.1612903 73.4426752,19.8387097 72.3216561,20.7419355 C71.3407643,21.6451613 69.5191083,21.6451613 68.5382166,20.7419355 C67.5573248,19.7096774 67.5573248,18.1612903 68.5382166,17.2580645 Z" id="Shape"></path>
                <path d="M65.4235669,31.4664537 C67.5254777,29.5495208 67.5254777,26.3546326 65.4235669,24.4376997 C63.3216561,22.5207668 59.6783439,22.5207668 57.5764331,24.4376997 C55.4745223,26.3546326 55.4745223,29.5495208 57.5764331,31.4664537 C59.8184713,33.5111821 63.3216561,33.5111821 65.4235669,31.4664537 Z M59.6783439,26.2268371 C60.6592357,25.2044728 62.4808917,25.2044728 63.4617834,26.2268371 C64.5828025,27.1214058 64.5828025,28.7827476 63.4617834,29.6773163 C60.9394904,31.9776358 57.0159236,28.5271565 59.6783439,26.2268371 Z" id="Shape"></path>
                <path d="M48.5764331,33.3680782 C46.4745223,35.3224756 46.4745223,38.5798046 48.5764331,40.534202 C50.6783439,42.4885993 54.1815287,42.4885993 56.4235669,40.534202 C58.5254777,38.5798046 58.5254777,35.3224756 56.4235669,33.3680782 C54.3216561,31.5439739 50.6783439,31.5439739 48.5764331,33.3680782 Z M54.4617834,38.8403909 C53.4808917,39.752443 51.6592357,39.752443 50.6783439,38.8403909 C49.6974522,37.9283388 49.5573248,36.2345277 50.6783439,35.3224756 C51.7993631,34.2801303 53.4808917,34.2801303 54.4617834,35.3224756 C55.4426752,36.2345277 55.4426752,37.7980456 54.4617834,38.8403909 Z" id="Shape"></path>
            </g>
        </g>
    </g>
</svg>