<?xml version="1.0" encoding="UTF-8"?>
<svg width="24px" height="24px" viewBox="0 0 24 24" version="1.1" xmlns="http://www.w3.org/2000/svg" xmlns:xlink="http://www.w3.org/1999/xlink">
    <!-- Generator: sketchtool 49.1 (51147) - http://www.bohemiancoding.com/sketch -->
    <title>51BDA14F-E6A7-40DA-9FA9-2CF805A26EB9</title>
    <desc>Created with sketchtool.</desc>
    <defs></defs>
    <g id="Page-1" stroke="none" stroke-width="1" fill="none" fill-rule="evenodd">
        <g id="07_Distrib" transform="translate(-1248.000000, -648.000000)" fill="#FFFFFF">
            <g id="FirstBlock" transform="translate(358.000000, 632.000000)">
                <g id="GetConsultation" transform="translate(832.000000, 0.000000)">
                    <g id="Aerow-Copy" transform="translate(16.000000, 0.000000)">
                        <g id="Group" transform="translate(42.000000, 16.000000)">
                            <path d="M17.3085938,14.2519531 C16.9384766,14.2519531 16.703125,14.4101562 16.5703125,14.5429687 L15.0869141,16.0273437 C15.0751953,16.0390625 15.0117188,16.0703125 14.8652344,16.0703125 C14.0478516,16.0703125 12.3125,15.1611328 10.5761719,13.4238281 C8.2421875,11.0908203 7.7275391,9.1582031 7.9726563,8.9130859 L9.4570313,7.4296875 C10.4355469,6.4511719 8.7041016,4.4277344 7.584961,3.3085937 C7.0771484,2.8007813 5.3339844,1.1455078 4.203125,1.1455078 C3.8330078,1.1455078 3.5976562,1.3037109 3.4648437,1.4365234 L0.4960937,4.4052734 C-0.3945313,5.2958984 -0.0771485,7.0253906 1.4414062,9.5449218 C2.7519531,11.7207031 4.8242187,14.2695312 7.2773437,16.7226562 C10.8994141,20.3447266 15.6992188,24 18.2568359,24 L18.2578125,24 C18.953125,24 19.3691406,23.7304687 19.5947266,23.5039062 L22.5634766,20.5351562 C23.5419922,19.5576171 21.8105469,17.5341796 20.6914063,16.415039 C20.1835938,15.9072266 18.4404297,14.2519531 17.3085938,14.2519531 Z M18.5341797,22.4433594 C18.5126953,22.4648438 18.4306641,22.5 18.2568359,22.5 C16.7636718,22.5 12.7792968,20.1035156 8.3378906,15.6621094 C5.96875,13.2929688 3.9755859,10.8457031 2.7255859,8.7714844 C1.3291016,6.4521484 1.4482422,5.5742188 1.5566406,5.4658203 L4.3330078,2.6894531 C4.703125,2.8408203 5.5322266,3.3769531 6.5244141,4.3691406 C7.5175782,5.3623047 8.0527344,6.1914062 8.2041016,6.5605469 L6.9121094,7.8525391 C5.5283203,9.2382813 7.2919922,12.2617188 9.515625,14.484375 C11.4179688,16.3876953 13.4677734,17.5703125 14.8652344,17.5703125 C15.5253907,17.5703125 15.9267578,17.3085937 16.147461,17.0878906 L17.4394532,15.7958984 C17.8085938,15.9472656 18.6376954,16.4824218 19.6308595,17.4755859 C20.623047,18.46875 21.1591798,19.296875 21.310547,19.6669922 L18.5341797,22.4433594 Z" id="Shape"></path>
                            <path d="M21.4667969,2.5332031 C19.8339844,0.8994141 17.6601563,0 15.3466797,0 L15.3447266,0 C14.9306641,0 14.5947266,0.3359375 14.5947266,0.75 C14.5947266,1.1640625 14.9306641,1.5 15.3447266,1.5 L15.3466797,1.5 C17.2597656,1.5 19.0566406,2.2431641 20.40625,3.59375 C21.7568359,4.9443359 22.5,6.7412109 22.5,8.6552734 C22.5,9.0693359 22.8359375,9.4052734 23.25,9.4052734 C23.6640625,9.4052734 24,9.0693359 24,8.6552734 C24.0009766,6.3408203 23.1005859,4.1669922 21.4667969,2.5332031 Z" id="Shape"></path>
                            <path d="M14.3554688,4.4658203 L14.3574219,4.4658203 C15.7421875,4.4658203 17.0419922,5.0039062 18.0195313,5.9804687 C18.9960938,6.9580078 19.5341797,8.258789 19.5341797,9.6445312 C19.5341797,10.0585937 19.8701172,10.3945312 20.2841797,10.3945312 C20.6982422,10.3945312 21.0341797,10.0585937 21.0341797,9.6445312 C21.0351563,7.8583984 20.3408203,6.180664 19.0800781,4.9199218 C17.8193359,3.6601562 16.1425781,2.9658202 14.3574218,2.9658202 L14.3554687,2.9658202 C13.9414062,2.9658202 13.6054687,3.3017577 13.6054687,3.7158202 C13.6054687,4.1298827 13.9414063,4.4658203 14.3554688,4.4658203 Z" id="Shape"></path>
                            <path d="M13.3662109,7.4316406 L13.368164,7.4316406 C14.2236328,7.4316406 15.0283203,7.7646484 15.6318359,8.368164 C16.2363281,8.9726562 16.5683593,9.7773437 16.5683593,10.633789 C16.5683593,11.0478515 16.9042968,11.383789 17.3183593,11.383789 C17.7324218,11.383789 18.0683593,11.0478515 18.0683593,10.633789 C18.0693359,9.3769531 17.580078,8.1953124 16.6923827,7.3076171 C15.8056641,6.4199219 14.625,5.9316406 13.3681641,5.9316406 L13.366211,5.9316406 C12.9521485,5.9316406 12.616211,6.2675781 12.616211,6.6816406 C12.616211,7.0957031 12.9521484,7.4316406 13.3662109,7.4316406 Z" id="Shape"></path>
                        </g>
                    </g>
                </g>
            </g>
        </g>
    </g>
</svg>