<?xml version="1.0" encoding="UTF-8"?>
<svg width="104px" height="112px" viewBox="0 0 104 112" version="1.1" xmlns="http://www.w3.org/2000/svg" xmlns:xlink="http://www.w3.org/1999/xlink">
    <!-- Generator: sketchtool 49.1 (51147) - http://www.bohemiancoding.com/sketch -->
    <title>A22D2E07-99EB-43A6-B662-428FBAAD7B3A</title>
    <desc>Created with sketchtool.</desc>
    <defs></defs>
    <g id="Symbols" stroke="none" stroke-width="1" fill="none" fill-rule="evenodd">
        <g id="ico_advantage_2">
            <ellipse id="Oval-6-Copy" fill="#F3F3F5" cx="45.5" cy="60" rx="45.5" ry="44"></ellipse>
            <g id="noun_1018316_cc" transform="translate(8.000000, 5.000000)" fill="#333333" fill-rule="nonzero">
                <path d="M0.341874626,31.475901 C-0.0291296802,31.8976818 -0.104730558,32.4972721 0.147272367,32.9962415 L7.00035191,46.4877128 L7.00035191,75.1081573 C7.00035191,75.7022341 7.38535637,76.2273925 7.95796302,76.4148507 L24.758158,81.9283248 C24.9023597,81.9765677 25.0521614,82 25.2005631,82 L72.8011156,82 C73.5753246,82 74.2011319,81.3838693 74.2011319,80.6216315 L74.2011319,52.1100781 L83.7478427,38.6820117 C84.0110457,38.3098522 84.0726464,37.8343151 83.9116446,37.4097776 C83.7506427,36.9838617 83.3866385,36.6640802 82.9400333,36.5551891 L66.1398383,32.4200834 C65.6078321,32.2850033 65.0352255,32.4793533 64.6964215,32.9094043 L55.3163127,44.7840493 L23.2657407,44.7840493 L19.4520964,37.2760758 C19.2854945,36.9494025 18.9942911,36.6999178 18.642887,36.5855132 L1.84269204,31.072039 C1.30928585,30.8928511 0.714278948,31.0554986 0.341874626,31.475901 Z M9.8003844,48.0755934 L23.8005469,52.6696957 L23.8005469,78.7098343 L9.8003844,74.1143536 L9.8003844,48.0755934 Z M71.4010994,79.2432629 L26.6005794,79.2432629 L26.6005794,53.0542606 L71.4010994,53.0542606 L71.4010994,79.2432629 Z M66.3470407,35.3119006 L80.2870025,38.74266 L72.2537093,50.0425253 L58.3221476,45.4704768 L66.3470407,35.3119006 Z M55.774118,47.5407864 L64.1742155,50.2975235 L26.0657732,50.2975235 L24.6657569,47.5407864 L55.774118,47.5407864 Z M17.2078704,39.0183337 L21.1461161,46.7744135 C21.1461161,46.7757918 21.1475161,46.7771702 21.1475161,46.7785486 L22.4355311,49.3161251 L9.39157966,45.0362907 L4.16251897,34.7384993 L17.2078704,39.0183337 Z" id="Shape"></path>
                <path d="M28.43375,12.7186207 C27.348875,13.6703448 26,14.8551724 26,16.5517241 C26,18.2482759 27.348875,19.4344828 28.43375,20.3848276 C28.99475,20.8758621 29.63,21.4344828 29.793625,21.8303448 C29.975125,22.2703448 29.9215,23.1503448 29.87475,23.9268966 C29.784,25.4137931 29.6795,27.1006897 30.833125,28.2565517 C31.984,29.4110345 33.66425,29.3089655 35.14925,29.217931 C35.304625,29.2082759 35.4655,29.1986207 35.626375,29.1903448 L35.626375,38.6206897 C35.626375,39.0455172 35.821625,39.4468966 36.15575,39.7075862 C36.4885,39.9682759 36.924375,40.062069 37.334125,39.9586207 L42.5,38.6634483 L47.66725,39.9572414 C47.77725,39.9862069 47.888625,40 48,40 C48.303875,40 48.60225,39.8993103 48.845625,39.7075862 C49.17975,39.4468966 49.375,39.0455172 49.375,38.6206897 L49.375,29.1903448 C49.5345,29.1986207 49.695375,29.2082759 49.852125,29.217931 C51.33025,29.3089655 53.016,29.4124138 54.16825,28.2565517 C55.321875,27.0993103 55.21875,25.4137931 55.126625,23.9268966 C55.079875,23.1517241 55.02625,22.2717241 55.20775,21.8317241 C55.371375,21.4358621 56.008,20.8772414 56.567625,20.3848276 C57.651125,19.4331034 59,18.2482759 59,16.5517241 C59,14.8551724 57.651125,13.6689655 56.56625,12.7186207 C56.00525,12.2275862 55.37,11.6689655 55.206375,11.2731034 C55.024875,10.8331034 55.0785,9.95310345 55.12525,9.17655172 C55.216,7.68965517 55.3205,6.00275862 54.166875,4.84689655 C53.014625,3.69103448 51.333,3.79172414 49.85075,3.88551724 C49.078,3.9337931 48.202125,3.98758621 47.762125,3.80413793 C47.3675,3.64 46.810625,3.00137931 46.31975,2.44 C45.372375,1.35310345 44.19125,0 42.5,0 C40.80875,0 39.62625,1.35310345 38.678875,2.44137931 C38.189375,3.00413793 37.6325,3.64137931 37.237875,3.80551724 C36.79925,3.98896552 35.922,3.93517241 35.147875,3.88689655 C33.668375,3.79448276 31.984,3.69103448 30.83175,4.84827586 C29.678125,6.00551724 29.78125,7.69103448 29.873375,9.17793103 C29.920125,9.95310345 29.97375,10.8331034 29.79225,11.2731034 C29.63,11.6675862 28.993375,12.2262069 28.43375,12.7186207 Z M42.83275,35.9034483 C42.724125,35.8758621 42.611375,35.862069 42.5,35.862069 C42.388625,35.862069 42.275875,35.8758621 42.16725,35.9034483 L38.375,36.8537931 L38.375,30.3186207 C38.47675,30.4331034 38.579875,30.5489655 38.678875,30.6634483 C39.627625,31.7503448 40.80875,33.1034483 42.5,33.1034483 C44.19125,33.1034483 45.37375,31.7503448 46.321125,30.662069 C46.420125,30.5489655 46.521875,30.4317241 46.625,30.3172414 L46.625,36.8524138 L42.83275,35.9034483 Z M30.244625,14.7944828 C31.071,14.0703448 31.9235,13.3213793 32.334625,12.3282759 C32.760875,11.3006897 32.689375,10.1351724 32.61925,9.00965517 C32.5725,8.23862069 32.501,7.07724138 32.777375,6.79862069 C33.05375,6.52 34.212875,6.59310345 34.9815,6.64 C36.104875,6.70758621 37.265375,6.78068966 38.2925,6.35448276 C39.27975,5.94206897 40.026375,5.08689655 40.74825,4.25793103 C41.299625,3.62482759 42.055875,2.75862069 42.5,2.75862069 C42.944125,2.75862069 43.700375,3.62482759 44.25175,4.25793103 C44.973625,5.08689655 45.72025,5.94206897 46.71025,6.35448276 C47.734625,6.77931034 48.897875,6.70896552 50.0185,6.64 C50.787125,6.59310345 51.944875,6.52137931 52.222625,6.79862069 C52.500375,7.07586207 52.4275,8.23862069 52.38075,9.00965517 C52.310625,10.1351724 52.239125,11.3006897 52.665375,12.3310345 C53.0765,13.3213793 53.929,14.0703448 54.755375,14.7944828 C55.3865,15.3475862 56.25,16.1062069 56.25,16.5517241 C56.25,16.9972414 55.3865,17.7558621 54.755375,18.3089655 C53.929,19.0331034 53.0765,19.782069 52.665375,20.7751724 C52.239125,21.8027586 52.310625,22.9682759 52.38075,24.0937931 C52.4275,24.8648276 52.499,26.0262069 52.222625,26.3048276 C51.94625,26.5806897 50.787125,26.5103448 50.0185,26.4634483 C49.3035,26.4206897 48.57475,26.3903448 47.872125,26.4731034 C47.855625,26.4744828 47.8405,26.4662069 47.824,26.4689655 C47.775875,26.4758621 47.736,26.4868966 47.68925,26.4937931 C47.58475,26.5103448 47.48025,26.5282759 47.377125,26.5517241 C47.1365,26.6041379 46.911,26.6648276 46.71025,26.7475862 C46.71025,26.7489655 46.708875,26.7489655 46.7075,26.7489655 C45.72025,27.1613793 44.973625,28.0165517 44.25175,28.8455172 C43.700375,29.4786207 42.944125,30.3448276 42.5,30.3448276 C42.055875,30.3448276 41.299625,29.4786207 40.74825,28.8455172 C40.026375,28.0165517 39.27975,27.1613793 38.291125,26.7489655 C38.038125,26.6427586 37.743875,26.5710345 37.4235,26.5144828 C37.350625,26.502069 37.279125,26.4841379 37.204875,26.4744828 C37.193875,26.4731034 37.185625,26.4703448 37.174625,26.4689655 C37.166375,26.4675862 37.1595,26.4717241 37.152625,26.4703448 C36.857,26.4331034 36.558625,26.4110345 36.256125,26.4110345 C35.83125,26.4110345 35.403625,26.4386207 34.9815,26.4634483 C34.212875,26.5103448 33.055125,26.5806897 32.777375,26.3048276 C32.501,26.0275862 32.5725,24.8648276 32.61925,24.0937931 C32.689375,22.9682759 32.760875,21.8027586 32.334625,20.7724138 C31.9235,19.782069 31.071,19.0331034 30.244625,18.3089655 C29.6135,17.7558621 28.75,16.9972414 28.75,16.5517241 C28.75,16.1062069 29.6135,15.3475862 30.244625,14.7944828 Z" id="Shape"></path>
                <path d="M42.5,25 C47.18775,25 51,21.412 51,17 C51,12.588 47.18775,9 42.5,9 C37.81225,9 34,12.588 34,17 C34,21.412 37.81225,25 42.5,25 Z M42.5,11.6666667 C45.6251667,11.6666667 48.1666667,14.0586667 48.1666667,17 C48.1666667,19.9413333 45.6251667,22.3333333 42.5,22.3333333 C39.3748333,22.3333333 36.8333333,19.9413333 36.8333333,17 C36.8333333,14.0586667 39.3748333,11.6666667 42.5,11.6666667 Z" id="Shape"></path>
                <path d="M56.4,77 L67.6,77 C68.3742,77 69,76.385375 69,75.625 L69,67.375 C69,66.614625 68.3742,66 67.6,66 L56.4,66 C55.6258,66 55,66.614625 55,67.375 L55,75.625 C55,76.385375 55.6258,77 56.4,77 Z M57.8,68.75 L66.2,68.75 L66.2,74.25 L57.8,74.25 L57.8,68.75 Z" id="Shape"></path>
                <path d="M8.66666667,1 L8.66666667,1.66666667 C8.66666667,2.21895142 8.21895142,2.66666667 7.66666667,2.66666667 L7,2.66666667 C6.44771525,2.66666667 6,3.11438192 6,3.66666667 L6,4.33333333 C6,4.88561808 6.44771525,5.33333333 7,5.33333333 L7.66666667,5.33333333 C8.21895142,5.33333333 8.66666667,5.78104858 8.66666667,6.33333333 L8.66666667,7 C8.66666667,7.55228475 9.11438192,8 9.66666667,8 L10.3333333,8 C10.8856181,8 11.3333333,7.55228475 11.3333333,7 L11.3333333,6.33333333 C11.3333333,5.78104858 11.7810486,5.33333333 12.3333333,5.33333333 L13,5.33333333 C13.5522847,5.33333333 14,4.88561808 14,4.33333333 L14,3.66666667 C14,3.11438192 13.5522847,2.66666667 13,2.66666667 L12.3333333,2.66666667 C11.7810486,2.66666667 11.3333333,2.21895142 11.3333333,1.66666667 L11.3333333,1 C11.3333333,0.44771525 10.8856181,-1.01453063e-16 10.3333333,0 L9.66666667,0 C9.11438192,1.01453063e-16 8.66666667,0.44771525 8.66666667,1 Z" id="Shape"></path>
                <path d="M75.6666667,9 L75.6666667,9.66666667 C75.6666667,10.2189514 75.2189514,10.6666667 74.6666667,10.6666667 L74,10.6666667 C73.4477153,10.6666667 73,11.1143819 73,11.6666667 L73,12.3333333 C73,12.8856181 73.4477153,13.3333333 74,13.3333333 L74.6666667,13.3333333 C75.2189514,13.3333333 75.6666667,13.7810486 75.6666667,14.3333333 L75.6666667,15 C75.6666667,15.5522847 76.1143819,16 76.6666667,16 L77.3333333,16 C77.8856181,16 78.3333333,15.5522847 78.3333333,15 L78.3333333,14.3333333 C78.3333333,13.7810486 78.7810486,13.3333333 79.3333333,13.3333333 L80,13.3333333 C80.5522847,13.3333333 81,12.8856181 81,12.3333333 L81,11.6666667 C81,11.1143819 80.5522847,10.6666667 80,10.6666667 L79.3333333,10.6666667 C78.7810486,10.6666667 78.3333333,10.2189514 78.3333333,9.66666667 L78.3333333,9 C78.3333333,8.44771525 77.8856181,8 77.3333333,8 L76.6666667,8 C76.1143819,8 75.6666667,8.44771525 75.6666667,9 Z" id="Shape"></path>
                <path d="M58,33 L60.8571429,33 C60.8571429,29.0614286 64.0614286,25.8571429 68,25.8571429 L68,23 C62.4871429,23 58,27.4871429 58,33 Z" id="Shape"></path>
                <path d="M18,23 L18,25.8571429 C21.9385714,25.8571429 25.1428571,29.0614286 25.1428571,33 L28,33 C28,27.4871429 23.5128571,23 18,23 Z" id="Shape"></path>
                <rect id="Rectangle-path" x="12" y="23" width="2" height="2" rx="1"></rect>
                <rect id="Rectangle-path" x="70" y="23" width="2" height="2" rx="1"></rect>
                <rect id="Rectangle-path" x="63" y="7" width="2" height="2" rx="1"></rect>
                <rect id="Rectangle-path" x="0" y="14" width="2" height="2" rx="1"></rect>
                <rect id="Rectangle-path" x="82" y="0" width="2" height="2" rx="1"></rect>
            </g>
        </g>
    </g>
</svg>