<?xml version="1.0" encoding="UTF-8"?>
<svg width="104px" height="112px" viewBox="0 0 104 112" version="1.1" xmlns="http://www.w3.org/2000/svg" xmlns:xlink="http://www.w3.org/1999/xlink">
    <!-- Generator: sketchtool 49.1 (51147) - http://www.bohemiancoding.com/sketch -->
    <title>958DF567-0EE9-4001-88B1-EB90FAEFD677</title>
    <desc>Created with sketchtool.</desc>
    <defs>
        <path d="M27.2648941,28.9123605 C31.0981642,24.9707868 34.9314344,23 38.7647045,23 C42.5979725,23 46.4312406,24.9707846 50.2645086,28.9123539 L50.2645095,28.912353 C51.7168565,30.4057331 52.5294136,32.406723 52.5294136,34.4898687 L52.5294136,36.2352965 C52.5294136,38.8667718 50.3961815,41.0000039 47.7647062,41.0000039 L29.7647013,41.0000039 C27.1332265,41.0000039 24.9999947,38.8667721 24.9999947,36.2352973 C24.9999947,36.2352971 24.9999947,36.2352968 24.9999947,36.2352965 L24.9999906,34.4898754 C24.999991,32.4067301 25.8125478,30.4057407 27.2648941,28.9123605 Z" id="path-1"></path>
        <path d="M58.2649002,28.9123605 C62.0981703,24.9707868 65.9314405,23 69.7647106,23 C73.5979786,23 77.4312467,24.9707846 81.2645147,28.9123539 L81.2645156,28.912353 C82.7168626,30.4057331 83.5294197,32.406723 83.5294197,34.4898687 L83.5294197,36.2352965 C83.5294197,38.8667718 81.3961876,41.0000039 78.7647123,41.0000039 L60.7647074,41.0000039 C58.1332326,41.0000039 56.0000008,38.8667721 56.0000008,36.2352973 C56.0000008,36.2352971 56.0000008,36.2352968 56.0000008,36.2352965 L55.9999967,34.4898754 C55.9999971,32.4067301 56.8125539,30.4057407 58.2649002,28.9123605 Z" id="path-2"></path>
    </defs>
    <g id="Symbols" stroke="none" stroke-width="1" fill="none" fill-rule="evenodd">
        <g id="ico_advantage_3">
            <ellipse id="Oval-6-Copy-3" fill="#F3F3F5" cx="46.5" cy="60" rx="45.5" ry="44"></ellipse>
            <g id="Group-26" transform="translate(11.000000, 1.000000)" fill="#333333" fill-rule="nonzero">
                <path d="M1.38405967,85 L17.9837937,85 C18.7114154,85 19.2924061,84.4245309 19.3463552,83.7020442 L37.2505517,84.9971997 C37.5202974,85 37.687678,84.9691963 37.8467588,84.9075889 L55.829804,77.9067488 C56.0220843,77.8311397 56.1949981,77.7149258 56.3360959,77.5637076 L82.6190081,49.5603472 C82.8624709,49.299916 82.9994187,48.9540745 82.9994187,48.5956315 C82.9994187,46.1495379 81.8056211,44.3013162 79.8759021,43.475217 L82.7227565,39.6345561 C83.0381514,39.2103052 83.0879506,38.6432372 82.854171,38.1685802 C82.6203914,37.6939233 82.1403824,37.3942873 81.6161075,37.3942873 L1.38405967,37.3942873 C0.859784736,37.3942873 0.381159071,37.6939233 0.145996172,38.1685802 C-0.0891667268,38.6432372 -0.0366009023,39.2103052 0.277410733,39.6345561 L4.42734424,45.2352282 C4.68879005,45.5880706 5.09825016,45.7952954 5.53399318,45.7952954 L27.0527817,45.7952954 C26.5769227,46.6227947 26.2836607,47.5707085 26.2836607,48.5956315 L26.2836607,56.3525623 L19.3671049,62.3536824 L19.3671049,58.3968076 C19.3671049,57.6239149 18.7473815,56.9966396 17.9837937,56.9966396 L1.38405967,56.9966396 C0.620471903,56.9966396 0.000748499274,57.6239149 0.000748499274,58.3968076 L0.000748499274,83.599832 C0.000748499274,84.3727247 0.620471903,85 1.38405967,85 Z M37.3501501,69.6807617 L37.3501501,68.7776533 L54.8324366,51.0823299 C55.5393087,50.6286754 56.6307412,50.4900588 57.1204333,50.9857183 C57.6640746,51.5359843 57.6640746,52.6561187 57.1204333,53.2063848 L49.2341763,61.1887426 C45.0731763,64.1318958 40.973042,67.0680482 37.3501501,69.6807617 Z M59.0778186,49.0058807 C57.430295,47.3382806 54.7964706,47.6813218 53.1530969,48.8504621 C53.0880813,48.8966676 53.0272156,48.9484738 52.9718831,49.0058807 L37.3501501,64.8179782 L37.3501501,48.5956315 C37.3501501,47.5707085 37.0568881,46.6227947 36.5810291,45.7952954 L71.9467624,45.7952954 C68.7955796,47.7303276 64.6082967,50.516662 60.0184702,53.6656399 C60.5828612,52.0988519 60.2743828,50.217026 59.0778186,49.0058807 Z M4.15068201,40.1946234 L78.8494852,40.1946234 L76.7745184,42.9949594 L6.22564876,42.9949594 L4.15068201,40.1946234 Z M28.5675075,58.0593671 C28.8746025,57.7933352 29.0502831,57.4054887 29.0502831,56.9966396 L29.0502831,48.5956315 C29.0502831,47.0512461 30.2911132,45.7952954 31.8169054,45.7952954 C33.3426976,45.7952954 34.5835277,47.0512461 34.5835277,48.5956315 L34.5835277,68.1979838 L34.5835277,72.3984878 C34.5835277,72.9235508 34.8726398,73.4038085 35.3332824,73.6432372 C35.5158795,73.7384486 35.7123097,73.7762532 35.9101232,73.7846542 C35.9294895,73.7860543 35.9474726,73.7986558 35.9668389,73.7986558 C35.9820553,73.7986558 35.9972718,73.791655 36.0124882,73.791655 C36.1024034,73.7888547 36.189552,73.7706525 36.2767006,73.74965 C36.3195833,73.7398488 36.3638492,73.7370484 36.4067319,73.7216466 C36.5339965,73.6782414 36.6584945,73.6194343 36.7705427,73.5368244 C36.834175,73.4906189 43.1904898,68.8980678 50.8249842,63.5074209 C50.8360507,63.4990199 50.8457339,63.4892187 50.8568003,63.4808177 C63.0340886,54.8935872 75.5032555,46.3791655 77.5560892,45.7952954 C79.5452907,45.8345001 80.0737156,47.1464576 80.1982136,48.0719686 L54.5460912,75.4046486 L37.1412701,82.1800616 L19.3671049,80.8961075 L19.3671049,66.041725 L28.5675075,58.0593671 Z M2.76737084,59.7969756 L16.6004825,59.7969756 L16.6004825,65.3976477 L16.6004825,82.199664 L2.76737084,82.199664 L2.76737084,59.7969756 Z" id="Shape-Copy"></path>
                <path d="M10,63 C7.79466667,63 6,64.7946667 6,67 C6,69.2053333 7.79466667,71 10,71 C12.2053333,71 14,69.2053333 14,67 C14,64.7946667 12.2053333,63 10,63 Z M10,68.3333333 C9.26533333,68.3333333 8.66666667,67.7346667 8.66666667,67 C8.66666667,66.2653333 9.26533333,65.6666667 10,65.6666667 C10.7346667,65.6666667 11.3333333,66.2653333 11.3333333,67 C11.3333333,67.7346667 10.7346667,68.3333333 10,68.3333333 Z" id="Shape"></path>
            </g>
            <path d="M38.1980678,21.2126213 C37.5775303,22.2563003 37.2500051,23.4480395 37.250005,24.6622614 L37.249999,32.0000057 C37.249999,35.7279278 40.272077,38.7500057 43.999999,38.7500057 L62.5294197,38.7500048 C66.2573418,38.7500048 69.2794197,35.7279269 69.2794197,32.0000048 L69.2794197,24.6622762 C69.2794197,23.4480564 68.9518954,22.256316 68.3313613,21.2126353 C63.1530358,12.50323 58.0953751,8.25 53.2647103,8.25 C48.4340482,8.25 43.3763903,12.5032253 38.1980678,21.2126213 Z" id="Rectangle-6-Copy-2" stroke="#333333" stroke-width="2.5"></path>
            <g id="Rectangle-6">
                <use fill="#F3F3F5" fill-rule="evenodd" xlink:href="#path-1"></use>
                <path stroke="#333333" stroke-width="2.5" d="M28.1610031,29.7838469 C26.9355858,31.0438866 26.2499909,32.7322216 26.2499906,34.4898725 L26.2499947,36.2352973 C26.2499947,38.1764162 27.8235824,39.7500039 29.7647013,39.7500039 L47.7647062,39.7500039 C49.7058255,39.7500039 51.2794136,38.1764158 51.2794136,36.2352965 L51.2794136,34.4898687 C51.2794136,32.7322142 50.5938184,31.0438794 49.3683998,29.7838406 C45.751948,26.0652132 42.2212736,24.25 38.7647045,24.25 C35.3081335,24.25 31.777457,26.0652153 28.1610031,29.7838469 Z"></path>
            </g>
            <g id="Rectangle-6-Copy">
                <use fill="#F3F3F5" fill-rule="evenodd" xlink:href="#path-2"></use>
                <path stroke="#333333" stroke-width="2.5" d="M59.1610092,29.7838469 C57.9355919,31.0438866 57.249997,32.7322216 57.2499967,34.4898725 L57.2500008,36.2352973 C57.2500008,38.1764162 58.8235885,39.7500039 60.7647074,39.7500039 L78.7647123,39.7500039 C80.7058316,39.7500039 82.2794197,38.1764158 82.2794197,36.2352965 L82.2794197,34.4898687 C82.2794197,32.7322142 81.5938245,31.0438794 80.3684059,29.7838406 C76.7519541,26.0652132 73.2212797,24.25 69.7647106,24.25 C66.3081396,24.25 62.7774631,26.0652153 59.1610092,29.7838469 Z"></path>
            </g>
        </g>
    </g>
</svg>