<svg width="25" height="20" viewBox="0 0 25 20" version="1.1" xmlns="http://www.w3.org/2000/svg" xmlns:xlink="http://www.w3.org/1999/xlink">
<title>Shape</title>
<desc>Created using Figma</desc>
<g id="Canvas" transform="translate(-23709 -6025)">
<g id="Shape">
<use xlink:href="#path0_fill" transform="translate(23709 6025)" fill="#FFFFFF"/>
</g>
</g>
<defs>
<path id="path0_fill" fill-rule="evenodd" d="M 23.2137 17.7275L 23.2137 6.81836C 22.9161 7.15927 22.5952 7.47177 22.2511 7.75586C 19.7586 9.70662 17.7775 11.307 16.308 12.557C 15.8337 12.9642 15.4477 13.2814 15.1501 13.5087C 14.8525 13.736 14.4502 13.9656 13.9434 14.1976C 13.4365 14.4296 12.9598 14.5456 12.5134 14.5456L 12.4855 14.5456C 12.0391 14.5456 11.5624 14.4296 11.0555 14.1976C 10.5486 13.9656 10.1464 13.736 9.84877 13.5087C 9.55115 13.2814 9.16518 12.9642 8.69085 12.557C 7.22135 11.307 5.24033 9.70662 2.74777 7.75586C 2.40365 7.47177 2.08278 7.15927 1.78516 6.81836L 1.78516 17.7275C 1.78516 17.8506 1.82933 17.9571 1.91769 18.0471C 2.00605 18.137 2.11068 18.182 2.23158 18.182L 22.7673 18.182C 22.8882 18.182 22.9928 18.137 23.0812 18.0471C 23.1695 17.9571 23.2137 17.8506 23.2137 17.7275ZM 23.2137 2.79847L 23.2137 2.45046L 23.2068 2.2658L 23.1649 2.08825L 23.0882 1.9604L 22.9626 1.85387L 22.7673 1.81836L 2.23158 1.81836C 2.11068 1.81836 2.00605 1.86334 1.91769 1.9533C 1.82933 2.04326 1.78516 2.1498 1.78516 2.2729C 1.78516 3.86381 2.46875 5.20851 3.83594 6.307C 5.63095 7.74639 7.49572 9.24734 9.43025 10.8098C 9.48605 10.8572 9.64881 10.9969 9.91853 11.2289C 10.1882 11.4609 10.4022 11.6384 10.5603 11.7615C 10.7184 11.8846 10.9253 12.0338 11.1811 12.209C 11.4368 12.3842 11.6717 12.5144 11.8856 12.5996C 12.0995 12.6848 12.2995 12.7275 12.4855 12.7275L 12.5134 12.7275C 12.6994 12.7275 12.8994 12.6848 13.1133 12.5996C 13.3272 12.5144 13.562 12.3842 13.8178 12.209C 14.0736 12.0338 14.2805 11.8846 14.4386 11.7615C 14.5967 11.6384 14.8106 11.4609 15.0804 11.2289C 15.3501 10.9969 15.5128 10.8572 15.5686 10.8098C 17.5032 9.24734 19.3679 7.74639 21.1629 6.307C 21.6652 5.8998 22.1325 5.35292 22.565 4.66637C 22.9975 3.97982 23.2137 3.35719 23.2137 2.79847ZM 25 2.27273L 25 17.7273C 25 18.3523 24.7814 18.8873 24.3443 19.3324C 23.9072 19.7775 23.3817 20 22.7679 20L 2.23214 20C 1.6183 20 1.09282 19.7775 0.655692 19.3324C 0.218564 18.8873 0 18.3523 0 17.7273L 0 2.27273C 0 1.64773 0.218564 1.11269 0.655692 0.667614C 1.09282 0.222538 1.6183 0 2.23214 0L 22.7679 0C 23.3817 0 23.9072 0.222538 24.3443 0.667614C 24.7814 1.11269 25 1.64773 25 2.27273Z"/>
</defs>
</svg>
