<svg width="32" height="32" viewBox="0 0 32 32" version="1.1" xmlns="http://www.w3.org/2000/svg" xmlns:xlink="http://www.w3.org/1999/xlink">
<title>icon_pink_adress</title>
<desc>Created using Figma</desc>
<g id="Canvas" transform="translate(-23589 -6200)">
<g id="icon_pink_adress">
<g id="if_00-ELASTOFONT-STORE-READY_map-maker2_2703073">
<g id="&#208;&#161;&#208;&#187;&#208;&#190;&#208;&#185;_1">
<g id="Group">
<g id="Shape">
<use xlink:href="#path0_fill" transform="translate(23593 6203.55)" fill="#EE64A4"/>
</g>
<g id="Shape">
<use xlink:href="#path1_fill" transform="translate(23601.9 6207.52)" fill="#EE64A4"/>
</g>
</g>
</g>
</g>
</g>
</g>
<defs>
<path id="path0_fill" fill-rule="evenodd" d="M 23.8994 22.504C 23.9224 22.462 23.9402 22.4199 23.9549 22.3736C 23.9702 22.3259 23.9789 22.2786 23.9844 22.2278C 23.9872 22.2011 24 22.1779 24 22.1504C 24 22.1252 23.9881 22.104 23.9857 22.0795C 23.9834 22.0554 23.991 22.0326 23.9863 22.0083L 22.1553 12.5264C 22.15 12.4993 22.1332 12.4786 22.1254 12.4528C 22.1108 12.4053 22.094 12.3614 22.0707 12.3184C 22.0462 12.2722 22.0184 12.2315 21.9855 12.1921C 21.9587 12.1602 21.9313 12.1318 21.8997 12.1048C 21.8573 12.0685 21.8131 12.0389 21.7636 12.013C 21.7276 11.994 21.6918 11.9788 21.6526 11.9657C 21.601 11.9487 21.5491 11.9388 21.4933 11.9335C 21.4677 11.9308 21.4453 11.9185 21.4189 11.9185L 17.3364 11.9185L 17.6182 11.5352C 17.626 11.5254 17.6328 11.5156 17.6396 11.5059C 18.3223 10.5449 19.1357 9.00586 19.1357 7.13428C 19.1357 3.21289 15.957 0.0205078 12.043 0C 12.0332 0 12.0254 0 12.0176 0C 12.0098 0 12.002 0 11.9922 0C 8.07715 0.0205078 4.89844 3.21289 4.89844 7.13428C 4.89844 8.98877 5.69824 10.5171 6.37793 11.481C 6.38477 11.4922 6.39258 11.5029 6.40039 11.5142L 6.69763 11.9185L 2.58105 11.9185C 2.55383 11.9185 2.53082 11.9312 2.50439 11.934C 2.45062 11.9394 2.40051 11.9487 2.3504 11.965C 2.3092 11.9786 2.27167 11.9945 2.23395 12.0146C 2.18579 12.04 2.14276 12.0688 2.10144 12.104C 2.06921 12.1314 2.04138 12.1601 2.01422 12.1924C 1.98132 12.2319 1.95349 12.2726 1.92896 12.3188C 1.90588 12.3616 1.8891 12.4053 1.87463 12.4526C 1.86676 12.4785 1.84998 12.4991 1.84473 12.5264L 0.0136719 22.0083C 0.0089722 22.0326 0.0166016 22.0554 0.0143433 22.0795C 0.0119019 22.104 0 22.1252 0 22.1504C 0 22.1779 0.0127563 22.2011 0.015625 22.2278C 0.0210571 22.2786 0.0298462 22.3259 0.045105 22.3736C 0.0598145 22.4199 0.0775757 22.462 0.100586 22.504C 0.123596 22.5462 0.148987 22.584 0.179566 22.6211C 0.210266 22.6583 0.242676 22.6906 0.279907 22.7213C 0.316528 22.7516 0.354309 22.7769 0.396729 22.8C 0.44104 22.8242 0.486084 22.842 0.535217 22.857C 0.560608 22.8648 0.58075 22.8815 0.607422 22.8867C 0.65564 22.8959 0.702881 22.9001 0.749146 22.9002C 0.749451 22.9002 0.749695 22.9004 0.75 22.9004L 23.25 22.9004C 23.2503 22.9004 23.2505 22.9002 23.2509 22.9002C 23.2971 22.9001 23.3444 22.8959 23.3926 22.8867C 23.4193 22.8815 23.4394 22.8648 23.4648 22.857C 23.5139 22.842 23.559 22.8242 23.6033 22.8C 23.6457 22.7769 23.6835 22.7516 23.7201 22.7213C 23.7573 22.6906 23.7897 22.6583 23.8204 22.6211C 23.851 22.584 23.8764 22.5462 23.8994 22.504ZM 6.39844 7.13428C 6.39844 4.03174 8.91797 1.50684 12.0176 1.5C 15.1172 1.50684 17.6357 4.03174 17.6357 7.13428C 17.6357 8.59863 16.9834 9.83398 16.4307 10.6187C 16.4287 10.6211 16.4268 10.623 16.4248 10.6255L 12.0176 16.6211L 7.62598 10.6479C 7.62305 10.6445 7.62109 10.6411 7.61816 10.6377C 7.06152 9.85352 6.39844 8.60938 6.39844 7.13428ZM 11.4 18.3145C 11.5416 18.5068 11.7916 18.6201 12.0299 18.6201C 12.2682 18.6201 12.4928 18.5063 12.6344 18.3145L 16.2334 13.4185L 20.7996 13.4185L 22.3411 21.4004L 1.6582 21.4004L 3.19965 13.4185L 7.80017 13.4185L 11.4 18.3145Z"/>
<path id="path1_fill" fill-rule="evenodd" d="M 3.15918 6.32617C 4.90039 6.32617 6.31738 4.90723 6.31738 3.16309C 6.31738 1.41895 4.90039 0 3.15918 0C 1.41699 0 0 1.41895 0 3.16309C 0 4.90723 1.41699 6.32617 3.15918 6.32617ZM 3.15918 1C 4.34961 1 5.31738 1.97021 5.31738 3.16309C 5.31738 4.35596 4.34961 5.32617 3.15918 5.32617C 1.96875 5.32617 1 4.35596 1 3.16309C 1 1.97021 1.96875 1 3.15918 1Z"/>
</defs>
</svg>
