<svg width="32" height="32" viewBox="0 0 32 32" version="1.1" xmlns="http://www.w3.org/2000/svg" xmlns:xlink="http://www.w3.org/1999/xlink">
<title>icon_pink_vk</title>
<desc>Created using Figma</desc>
<g id="Canvas" transform="translate(-23589 -6439)">
<g id="icon_pink_vk">
<g id="Shape">
<use xlink:href="#path0_fill" transform="translate(23593 6448)" fill="#FFFFFF"/>
<use xlink:href="#path1_stroke" transform="translate(23593 6448)" fill="#EE64A4"/>
</g>
</g>
</g>
<defs>
<path id="path0_fill" fill-rule="evenodd" d="M 20.0082 8C 20.2482 7.55 21.0982 6.26 21.7382 5.3C 23.6582 2.46 24.0082 1.86 24.0082 1.5C 24.0082 1.22386 23.7843 1 23.5082 1L 19.0082 1C 18.7674 1.00088 18.5615 1.17319 18.5182 1.41C 18.2682 2.79 15.0282 6.75 14.5182 7C 14.3082 7 14.0182 6.48 14.0182 5.5L 14.0182 1.28C 14.0737 0.949993 13.9864 0.611945 13.7782 0.35C 13.4382 0 12.9282 0 11.5082 0C 8.92818 0 8.00818 0.77 8.00818 1.5C 7.99707 1.62705 8.03921 1.753 8.12452 1.8478C 8.20983 1.94259 8.33067 1.99771 8.45818 2C 8.45818 2 9.00818 2.36 9.00818 4.5C 9.03646 5.33552 8.99296 6.17192 8.87818 7C 7.60818 6.77 5.84818 3.6 5.00818 1.32C 4.92972 1.11523 4.72699 0.985482 4.50818 1L 0.508183 1C 0.358399 0.99755 0.215408 1.06239 0.118557 1.17667C 0.0217049 1.29096 -0.0188015 1.44265 0.00818325 1.59C 0.568183 4.61 6.91818 14 11.0082 14L 13.0082 14C 14.0682 14 14.1482 12.85 14.2082 12.09C 14.2682 11.33 14.3182 11 14.5082 11C 15.1282 11 16.3982 12.1 17.2282 12.82C 18.0582 13.54 18.5982 14 19.0082 14L 21.5082 14C 22.7982 14 24.0082 14 24.0082 13C 24.0082 12.62 23.6782 12.18 21.7782 10C 21.1482 9.31 20.2982 8.36 20.0082 8Z"/>
<path id="path1_stroke" d="M 20.0082 8L 19.3464 7.64706L 19.1131 8.08446L 19.4241 8.4705L 20.0082 8ZM 21.7382 5.3L 21.1168 4.87994L 21.1141 4.88398L 21.7382 5.3ZM 19.0082 1L 19.0082 0.249995L 19.0054 0.250005L 19.0082 1ZM 18.5182 1.41L 17.7804 1.275L 17.7802 1.27631L 18.5182 1.41ZM 14.5182 7L 14.5182 7.75L 14.6921 7.75L 14.8483 7.67344L 14.5182 7ZM 14.0182 1.28L 13.2786 1.15564L 13.2682 1.21738L 13.2682 1.28L 14.0182 1.28ZM 13.7782 0.35L 14.3653 -0.116737L 14.3421 -0.145882L 14.3161 -0.172589L 13.7782 0.35ZM 8.00818 1.5L 8.75533 1.56534L 8.75818 1.53273L 8.75818 1.5L 8.00818 1.5ZM 8.45818 2L 8.86893 1.37247L 8.68793 1.254L 8.47164 1.25012L 8.45818 2ZM 9.00818 4.5L 8.25818 4.5L 8.25818 4.51269L 8.25861 4.52536L 9.00818 4.5ZM 8.87818 7L 8.74453 7.738L 9.51375 7.8773L 9.62108 7.10297L 8.87818 7ZM 5.00818 1.32L 5.712 1.0607L 5.70853 1.05165L 5.00818 1.32ZM 4.50818 1L 4.50818 1.75L 4.53304 1.75L 4.55784 1.74835L 4.50818 1ZM 0.508183 1L 0.495913 1.75L 0.508183 1.75L 0.508183 1ZM 0.00818325 1.59L -0.72955 1.7251L -0.729246 1.72674L 0.00818325 1.59ZM 21.7782 10L 22.3436 9.50722L 22.3379 9.50069L 22.332 9.4943L 21.7782 10ZM 20.6699 8.35294C 20.8878 7.94446 21.7094 6.6952 22.3622 5.71603L 21.1141 4.88398C 20.4869 5.8248 19.6086 7.15554 19.3464 7.64706L 20.6699 8.35294ZM 22.3595 5.72006C 23.3168 4.30405 23.897 3.42564 24.2376 2.85372C 24.5529 2.32413 24.7582 1.91503 24.7582 1.5L 23.2582 1.5C 23.2582 1.44497 23.2884 1.51587 22.9488 2.08628C 22.6343 2.61436 22.0796 3.45595 21.1169 4.87994L 22.3595 5.72006ZM 24.7582 1.5C 24.7582 0.809644 24.1985 0.25 23.5082 0.25L 23.5082 1.75C 23.3701 1.75 23.2582 1.63807 23.2582 1.5L 24.7582 1.5ZM 23.5082 0.25L 19.0082 0.25L 19.0082 1.75L 23.5082 1.75L 23.5082 0.25ZM 19.0054 0.250005C 18.4036 0.252213 17.8888 0.682986 17.7804 1.275L 19.2559 1.54499C 19.2343 1.6634 19.1313 1.74955 19.0109 1.74999L 19.0054 0.250005ZM 17.7802 1.27631C 17.7452 1.46933 17.5671 1.86888 17.219 2.44019C 16.8896 2.98068 16.4612 3.59108 16.018 4.17565C 15.5756 4.75928 15.127 5.30579 14.7619 5.71765C 14.5788 5.92425 14.4223 6.09056 14.3017 6.20852C 14.2412 6.26779 14.1958 6.30881 14.1649 6.33448C 14.1235 6.36888 14.1369 6.35166 14.1881 6.32656L 14.8483 7.67344C 14.9633 7.61709 15.0617 7.53964 15.1239 7.48789C 15.1966 7.42741 15.2734 7.35637 15.3507 7.28074C 15.5059 7.12889 15.6882 6.93403 15.8844 6.71267C 16.2781 6.26859 16.7508 5.69197 17.2133 5.08185C 17.6752 4.47267 18.1355 3.81869 18.4999 3.22075C 18.8455 2.65362 19.1661 2.04067 19.2562 1.54369L 17.7802 1.27631ZM 14.5182 6.25C 14.7771 6.25 14.9073 6.39987 14.913 6.40627C 14.9331 6.42895 14.9171 6.4189 14.8879 6.34433C 14.8317 6.2006 14.7682 5.92309 14.7682 5.5L 13.2682 5.5C 13.2682 6.05691 13.3497 6.5294 13.491 6.89067C 13.5605 7.0686 13.6564 7.2498 13.7899 7.4006C 13.909 7.53513 14.1543 7.75 14.5182 7.75L 14.5182 6.25ZM 14.7682 5.5L 14.7682 1.28L 13.2682 1.28L 13.2682 5.5L 14.7682 5.5ZM 14.7578 1.40436C 14.8486 0.864606 14.7059 0.311697 14.3653 -0.116737L 13.1911 0.816737C 13.267 0.912192 13.2988 1.03538 13.2786 1.15564L 14.7578 1.40436ZM 14.3161 -0.172589C 13.9829 -0.515652 13.5814 -0.645038 13.1419 -0.700376C 12.7359 -0.75149 12.195 -0.75 11.5082 -0.75L 11.5082 0.75C 12.2413 0.75 12.6655 0.75149 12.9545 0.787876C 13.21 0.820038 13.2335 0.865652 13.2402 0.872589L 14.3161 -0.172589ZM 11.5082 -0.75C 10.1597 -0.75 9.14985 -0.551337 8.44805 -0.190909C 7.7323 0.176682 7.25818 0.767979 7.25818 1.5L 8.75818 1.5C 8.75818 1.4831 8.76123 1.45069 8.79978 1.39743C 8.84216 1.33888 8.93662 1.24443 9.13332 1.14341C 9.53652 0.936337 10.2767 0.75 11.5082 0.75L 11.5082 -0.75ZM 7.26103 1.43466C 7.23181 1.76885 7.34264 2.10017 7.56705 2.34952L 8.68199 1.34607C 8.73577 1.40584 8.76234 1.48524 8.75533 1.56534L 7.26103 1.43466ZM 7.56705 2.34952C 7.79146 2.59887 8.10932 2.74386 8.44473 2.74988L 8.47164 1.25012C 8.55202 1.25156 8.62821 1.28631 8.68199 1.34607L 7.56705 2.34952ZM 8.45818 2C 8.04744 2.62753 8.04661 2.62698 8.04578 2.62644C 8.0455 2.62626 8.04468 2.62571 8.04413 2.62535C 8.04304 2.62462 8.04195 2.6239 8.04088 2.62318C 8.03873 2.62175 8.03663 2.62032 8.03456 2.6189C 8.03042 2.61606 8.02644 2.61327 8.02262 2.61053C 8.01497 2.60504 8.00795 2.59976 8.00153 2.59473C 7.98869 2.58465 7.97837 2.57567 7.97033 2.56818C 7.95416 2.5531 7.94785 2.54463 7.94914 2.5463C 7.95159 2.5495 7.98694 2.59654 8.03317 2.71673C 8.12734 2.96157 8.25818 3.48822 8.25818 4.5L 9.75818 4.5C 9.75818 3.37178 9.61403 2.64843 9.43319 2.17827C 9.34192 1.94096 9.23977 1.76425 9.1391 1.63307C 9.08883 1.56756 9.03955 1.51425 8.9933 1.47112C 8.97023 1.44961 8.94809 1.4308 8.92719 1.4144C 8.91675 1.40622 8.90664 1.39865 8.89691 1.39167C 8.89204 1.38818 8.88727 1.38484 8.88261 1.38164C 8.88027 1.38004 8.87797 1.37848 8.87569 1.37695C 8.87455 1.37619 8.87341 1.37543 8.87229 1.37469C 8.87172 1.37431 8.87088 1.37376 8.8706 1.37357C 8.86976 1.37302 8.86893 1.37247 8.45818 2ZM 8.25861 4.52536C 8.28543 5.31799 8.24417 6.11146 8.13529 6.89703L 9.62108 7.10297C 9.74175 6.23238 9.78748 5.35304 9.75775 4.47464L 8.25861 4.52536ZM 9.01184 6.262C 8.93137 6.24743 8.72072 6.14816 8.39233 5.812C 8.08507 5.49747 7.75125 5.05515 7.41474 4.52619C 6.7429 3.4701 6.11566 2.15653 5.71194 1.06072L 4.30443 1.57928C 4.74071 2.76347 5.41347 4.1749 6.14913 5.33131C 6.51637 5.9086 6.91317 6.44441 7.31935 6.86019C 7.70439 7.25434 8.19 7.63757 8.74453 7.738L 9.01184 6.262ZM 5.70853 1.05165C 5.51237 0.539722 5.00555 0.215351 4.45853 0.251645L 4.55784 1.74835C 4.44843 1.75561 4.34707 1.69074 4.30784 1.58835L 5.70853 1.05165ZM 4.50818 0.25L 0.508183 0.25L 0.508183 1.75L 4.50818 1.75L 4.50818 0.25ZM 0.520452 0.2501C 0.145992 0.243974 -0.211486 0.406069 -0.453615 0.691781L 0.690728 1.66156C 0.642302 1.71871 0.570807 1.75112 0.495915 1.7499L 0.520452 0.2501ZM -0.453615 0.691781C -0.695744 0.977493 -0.79701 1.35672 -0.729548 1.7251L 0.745915 1.4549C 0.759407 1.52858 0.739154 1.60442 0.690728 1.66156L -0.453615 0.691781ZM -0.729246 1.72674C -0.565264 2.61107 -0.00976144 3.85497 0.735182 5.1723C 1.49289 6.51221 2.48912 8.00175 3.5976 9.39454C 4.70369 10.7843 5.93895 12.0997 7.17905 13.0751C 8.3942 14.0309 9.72628 14.75 11.0082 14.75L 11.0082 13.25C 10.2451 13.25 9.24967 12.7954 8.10638 11.8961C 6.98804 11.0165 5.83393 9.79567 4.77127 8.46046C 3.711 7.12825 2.7591 5.70404 2.04087 4.43395C 1.30988 3.14128 0.861631 2.07893 0.745612 1.45326L -0.729246 1.72674ZM 11.0082 14.75L 13.0082 14.75L 13.0082 13.25L 11.0082 13.25L 11.0082 14.75ZM 13.0082 14.75C 13.4181 14.75 13.7858 14.6354 14.0882 14.4056C 14.3811 14.183 14.5612 13.8916 14.6751 13.6194C 14.8905 13.1044 14.9284 12.4963 14.9559 12.149L 13.4605 12.031C 13.4279 12.4437 13.3958 12.7906 13.2913 13.0406C 13.2451 13.1509 13.2028 13.1945 13.1807 13.2113C 13.168 13.2209 13.1283 13.25 13.0082 13.25L 13.0082 14.75ZM 14.9559 12.149C 14.9707 11.9611 14.9842 11.8094 14.9986 11.6861C 15.0133 11.5597 15.0269 11.4832 15.0376 11.4395C 15.0517 11.3826 15.048 11.4361 14.988 11.5155C 14.9521 11.5631 14.8907 11.6269 14.7966 11.6772C 14.6993 11.7292 14.598 11.75 14.5082 11.75L 14.5082 10.25C 14.1943 10.25 13.9453 10.4073 13.7912 10.6113C 13.6665 10.7764 13.611 10.9599 13.5812 11.0805C 13.52 11.3289 13.4893 11.6662 13.4605 12.031L 14.9559 12.149ZM 14.5082 11.75C 14.4753 11.75 14.5372 11.7469 14.7311 11.8481C 14.9031 11.9378 15.1117 12.0734 15.3465 12.2452C 15.8158 12.5887 16.3173 13.0227 16.7367 13.3865L 17.7196 12.2535C 17.3091 11.8973 16.7605 11.4213 16.2324 11.0348C 15.9684 10.8416 15.6914 10.6572 15.425 10.5182C 15.1804 10.3906 14.8511 10.25 14.5082 10.25L 14.5082 11.75ZM 16.7367 13.3865C 17.1429 13.7389 17.5159 14.0614 17.8428 14.2924C 18.1445 14.5058 18.5503 14.75 19.0082 14.75L 19.0082 13.25C 19.0561 13.25 18.9868 13.2642 18.7086 13.0676C 18.4554 12.8886 18.1435 12.6211 17.7196 12.2535L 16.7367 13.3865ZM 19.0082 14.75L 21.5082 14.75L 21.5082 13.25L 19.0082 13.25L 19.0082 14.75ZM 21.5082 14.75C 22.1162 14.75 22.8559 14.7558 23.4371 14.5992C 23.7401 14.5175 24.078 14.3733 24.3427 14.0947C 24.6258 13.7967 24.7582 13.416 24.7582 13L 23.2582 13C 23.2582 13.0489 23.2509 13.0681 23.2507 13.0686C 23.2505 13.0692 23.2511 13.0676 23.2526 13.0651C 23.2542 13.0627 23.2554 13.0614 23.2552 13.0616C 23.2527 13.0642 23.2076 13.1075 23.0467 13.1508C 22.7004 13.2442 22.1901 13.25 21.5082 13.25L 21.5082 14.75ZM 24.7582 13C 24.7582 12.5453 24.5346 12.1669 24.2074 11.7272C 23.8665 11.2692 23.2877 10.5905 22.3436 9.50722L 21.2128 10.4928C 22.1687 11.5895 22.7049 12.2208 23.004 12.6228C 23.3168 13.0431 23.2582 13.0747 23.2582 13L 24.7582 13ZM 22.332 9.4943C 21.6977 8.79951 20.8648 7.86779 20.5922 7.5295L 19.4241 8.4705C 19.7316 8.85221 20.5987 9.82049 21.2243 10.5057L 22.332 9.4943Z"/>
</defs>
</svg>
