<svg width="53" height="25" viewBox="0 0 53 25" version="1.1" xmlns="http://www.w3.org/2000/svg" xmlns:xlink="http://www.w3.org/1999/xlink">
<title>sempap_logotip1</title>
<desc>Created using Figma</desc>
<g id="Canvas" transform="translate(-24060 -6439)">
<g id="sempap_logotip1">
<g id="Layer_1">
<g id="Shape">
<use xlink:href="#path0_fill" transform="translate(24102 6459)" fill="#333333"/>
</g>
<g id="Shape">
<use xlink:href="#path1_fill" transform="translate(24071 6439)" fill="#333333"/>
</g>
<g id="Shape">
<use xlink:href="#path2_fill" transform="translate(24083 6439)" fill="#333333"/>
</g>
<g id="Shape">
<use xlink:href="#path3_fill" transform="translate(24102 6439)" fill="#333333"/>
</g>
<g id="Shape">
<use xlink:href="#path4_fill" transform="translate(24060 6439)" fill="#333333"/>
</g>
<g id="Shape">
<use xlink:href="#path5_fill" transform="translate(24060 6452)" fill="#333333"/>
</g>
<g id="Shape">
<use xlink:href="#path6_fill" transform="translate(24075 6452)" fill="#333333"/>
</g>
<g id="Shape">
<use xlink:href="#path7_fill" transform="translate(24087 6452)" fill="#333333"/>
</g>
<g id="Shape">
<use xlink:href="#path8_fill" transform="translate(24102 6452)" fill="#333333"/>
</g>
</g>
</g>
</g>
<defs>
<path id="path0_fill" fill-rule="evenodd" d="M 2.10029 0.001849C 2.73447 0.001849 3.24494 0.188946 3.62388 0.572172C 4.00524 0.946475 4.21434 1.45979 4.20206 1.99153C 4.20665 2.50593 3.99758 2.99958 3.62388 3.35669C 3.24624 3.74378 2.73447 3.94507 2.10029 3.94507C 1.46612 3.94507 0.928302 3.74895 0.558474 3.35669C -0.193678 2.58006 -0.185018 1.35122 0.578007 0.585075C 0.981374 0.189165 1.53305 -0.0221971 2.10029 0.001849Z"/>
<path id="path1_fill" fill-rule="evenodd" d="M 5.64468 2.67745C 5.10426 2.67745 4.72662 2.86454 4.50004 3.23874C 4.25879 3.61728 4.13016 4.05555 4.12891 4.50325L 7.00679 4.50325C 7.00574 4.261 6.98396 4.01928 6.94168 3.78067C 6.90365 3.57611 6.83006 3.37965 6.72421 3.20003C 6.62288 3.03947 6.48281 2.90644 6.31662 2.81293C 6.1076 2.71236 5.87689 2.66407 5.64468 2.67229L 5.64468 2.67745ZM 5.61654 0C 6.65831 0 7.49954 0.15871 8.15325 0.477419C 8.75721 0.74801 9.28388 1.16302 9.68596 1.68516C 10.0667 2.17926 10.3286 2.75298 10.4517 3.36258C 10.5901 3.97417 10.66 4.59903 10.66 5.22581L 10.66 6.10323L 4.06431 6.10323C 4.06431 6.87097 4.24401 7.42323 4.61254 7.74194C 4.98107 8.06065 5.5879 8.21935 6.42001 8.21935C 6.96057 8.22085 7.49988 8.16768 8.02954 8.06065C 8.58038 7.95832 9.12177 7.81116 9.64819 7.62065L 10.4295 9.98065C 9.67526 10.3768 8.86476 10.6574 8.02564 10.8129C 7.24292 10.9637 6.44777 11.0424 5.6504 11.0477C 4.49534 11.0477 3.54863 10.8968 2.8207 10.5884C 1.51634 10.0747 0.550332 8.9583 0.23711 7.60258C 0.0762349 6.93745 -0.00333714 6.25557 0.000107194 5.57161C 0.000721571 4.89386 0.0962602 4.21947 0.283989 3.56774C 0.465375 2.91467 0.781037 2.30581 1.21116 1.77935C 1.68239 1.22674 2.27477 0.78806 2.9431 0.496774C 3.66193 0.169032 4.56175 0.00129032 5.62045 0.00129032L 5.61654 0Z"/>
<path id="path2_fill" fill-rule="evenodd" d="M 8.56855 4.64258L 9.87076 2.24516L 11.1469 0L 15.5744 0L 15.5744 7.87097L 16.8337 7.87097L 16.8337 10.2297C 16.0211 10.5794 15.1451 10.7612 14.2592 10.7639C 13.8176 10.7752 13.3772 10.7119 12.957 10.5768C 12.6462 10.4768 12.3683 10.2958 12.1522 10.0529C 11.9556 9.81749 11.8213 9.53721 11.7616 9.23742C 11.6819 8.89388 11.6439 8.54215 11.6483 8.18968L 11.6483 5.3071L 11.5441 5.3071L 10.7198 6.84258L 9.55563 8.92L 7.48641 8.92L 6.42641 7.12258L 5.34688 5.19484L 5.2427 5.19484L 5.2427 10.5303L 1.25794 10.5303L 1.25794 2.46194L 0 2.46194L 0 0L 5.76359 0L 7.14523 2.34968L 8.44744 4.64387L 8.56855 4.64258Z"/>
<path id="path3_fill" fill-rule="evenodd" d="M 4.0655 3.76258L 6.74285 3.76258C 7.23143 3.7662 7.71773 3.82903 8.19091 3.94968C 8.66887 4.06175 9.12358 4.25516 9.53479 4.52129C 9.93351 4.78623 10.2644 5.13968 10.501 5.55355C 10.7524 6.03076 10.8761 6.56385 10.8604 7.10194C 10.8702 7.59772 10.7734 8.08989 10.5766 8.54581C 10.3954 8.95853 10.1199 9.32385 9.77179 9.6129C 9.41339 9.91985 8.99425 10.1493 8.5412 10.2865C 8.03735 10.4521 7.50941 10.5345 6.97855 10.5303L 0 10.5303L 0 0L 4.0655 0L 4.0655 3.76258ZM 4.06641 5.92236L 4.06641 8.15075L 5.58088 8.15075C 5.99672 8.15075 6.30881 8.04795 6.51717 7.84236C 6.72823 7.62771 6.8412 7.33667 6.8297 7.0372C 6.84944 6.72546 6.72367 6.42199 6.48852 6.21398C 6.25152 6.01785 5.93117 5.92365 5.51447 5.92365L 4.06641 5.92236Z"/>
<path id="path4_fill" fill-rule="evenodd" d="M 7.96433 0.149788C 8.56752 0.233301 9.1605 0.377707 9.73404 0.580756L 9.73404 4.11753L 7.10618 4.11753L 7.10618 2.87624C 6.29229 2.65172 5.13723 2.86721 4.61765 3.59753C 4.44479 3.85214 4.32564 4.13873 4.26736 4.44011C 4.1898 4.784 4.15179 5.13549 4.15406 5.48785C 4.14527 5.93844 4.2005 6.388 4.31814 6.82334C 4.40421 7.13077 4.56162 7.41401 4.77782 7.65043C 4.96807 7.84942 5.2059 7.99765 5.4693 8.0814C 6.46158 8.40011 8.75347 7.96011 9.73664 7.65043L 9.73664 10.3988C 8.61935 10.7859 6.82229 11.044 5.649 11.044C 4.51347 11.044 3.57588 10.9033 2.84795 10.613C 2.18282 10.3596 1.58885 9.95159 1.116 9.42334C 0.688204 8.92139 0.389706 8.32409 0.246127 7.68269C 0.0816288 7.00665 -0.000992842 6.31359 9.00226e-06 5.61818C 0.00427564 4.95244 0.0868727 4.28947 0.246127 3.64269C 0.395143 2.98333 0.692497 2.36582 1.116 1.83624C 1.58773 1.26502 2.1911 0.814518 2.87529 0.522691C 4.26736 -0.113438 6.46158 -0.0760185 7.96694 0.148498L 7.96433 0.149788Z"/>
<path id="path5_fill" fill-rule="evenodd" d="M 5.27916 2.49032L 5.27916 10.5135L 1.25924 10.5135L 1.25924 2.49032L 0 2.49032L 0 0L 11.923 0L 11.923 7.8529L 13.418 7.8529L 13.418 10.2116C 13.2005 10.2968 12.9726 10.3716 12.7278 10.4465C 12.4791 10.5196 12.2265 10.579 11.9712 10.6245C 11.7137 10.6795 11.4526 10.717 11.1899 10.7368C 10.9438 10.7561 10.7172 10.7639 10.5088 10.7639C 10.0686 10.776 9.62914 10.7194 9.20663 10.5961C 8.90095 10.5032 8.62197 10.3396 8.39275 10.1187C 8.19057 9.90183 8.04719 9.63768 7.97604 9.35097C 7.88838 9.02402 7.84675 8.68663 7.85233 8.34839L 7.85233 2.49032L 5.27916 2.49032Z"/>
<path id="path6_fill" fill-rule="evenodd" d="M 10.432 8.14595L 11.6913 8.14595L 11.6913 10.533C 11.3048 10.6766 10.9054 10.7833 10.4984 10.8518C 9.93376 10.9607 9.36001 11.0169 8.78473 11.0195C 8.32639 11.0319 7.87162 10.9364 7.45778 10.7408C 7.07883 10.5524 6.8809 10.1692 6.85225 9.5795C 6.85225 9.5795 6.84183 9.5795 6.8236 9.56015C 5.57478 10.8505 3.44566 11.5163 1.71372 10.7021C 1.31356 10.5255 0.957797 10.2633 0.671954 9.93434C 0.415583 9.64836 0.233637 9.30462 0.141954 8.93305C 0.0529765 8.6064 0.00529771 8.27006 1.29631e-05 7.93176C -0.000993487 7.57227 0.0566117 7.21498 0.170603 6.87369C 0.295832 6.52856 0.503604 6.21864 0.776131 5.97047C 1.11708 5.66722 1.51181 5.42922 1.94031 5.26853C 2.53771 5.02886 3.16893 4.88218 3.81159 4.83369L 6.59441 4.57563L 6.59441 4.23886C 6.59441 3.77047 6.48112 3.4066 6.24412 3.1524C 5.67635 2.57305 4.08635 2.8066 3.33888 2.90853C 2.80226 2.97578 2.27306 3.09197 1.758 3.25563L 1.15247 0.859501C 1.50034 0.717057 1.85752 0.598076 2.22159 0.503372C 3.90534 0.0543394 6.10217 -0.198564 7.79505 0.194985C 8.30704 0.303958 8.79047 0.517537 9.21446 0.822081C 9.6134 1.12634 9.9235 1.53025 10.113 1.9924C 10.3363 2.55882 10.4426 3.16389 10.4255 3.77176L 10.432 8.14595ZM 4.40375 6.77955C 4.24899 6.96682 4.16556 7.20203 4.16805 7.44407C 4.15133 7.75047 4.23792 8.05369 4.41417 8.306C 4.58476 8.51116 4.86864 8.62471 5.27493 8.62471C 5.70987 8.62471 6.24899 8.306 6.56152 8.026L 6.56152 6.2002C 5.98464 6.28407 4.76316 6.32923 4.40375 6.77955Z"/>
<path id="path7_fill" fill-rule="evenodd" d="M 5.28047 2.49032L 5.28047 10.5135L 1.25794 10.5135L 1.25794 2.49032L 0 2.49032L 0 0L 11.923 0L 11.923 7.8529L 13.1823 7.8529L 13.1823 10.2116C 12.246 10.5858 11.5259 10.7639 10.5232 10.7639C 10.0828 10.7772 9.6432 10.7206 9.22096 10.5961C 8.91409 10.5059 8.63451 10.3419 8.40708 10.1187C 8.2021 9.90245 8.05562 9.63835 7.98125 9.35097C 7.90196 9.02267 7.86391 8.68593 7.86796 8.34839L 7.86796 2.49032L 5.28047 2.49032Z"/>
<path id="path8_fill" fill-rule="evenodd" d="M 4.06941 0L 3.52118 6.10323L 0.558649 6.10323L 0 0L 4.06941 0Z"/>
</defs>
</svg>
