<svg width="32" height="32" viewBox="0 0 32 32" version="1.1" xmlns="http://www.w3.org/2000/svg" xmlns:xlink="http://www.w3.org/1999/xlink">
<title>if_00-ELASTOFONT-STORE-READY_phone-call_2703068 (1)</title>
<desc>Created using Figma</desc>
<g id="Canvas" transform="translate(-23589 -6245)">
<g id="if_00-ELASTOFONT-STORE-READY_phone-call_2703068 (1)">
<g id="&#208;&#161;&#208;&#187;&#208;&#190;&#208;&#185;_1">
<g id="ico_pink_phone">
<g id="Group">
<g id="Shape">
<use xlink:href="#path0_fill" transform="translate(23593 6250.15)" fill="#EE64A4"/>
</g>
<g id="Shape">
<use xlink:href="#path1_fill" transform="translate(23607.6 6249)" fill="#EE64A4"/>
</g>
<g id="Shape">
<use xlink:href="#path2_fill" transform="translate(23606.6 6251.97)" fill="#EE64A4"/>
</g>
<g id="Shape">
<use xlink:href="#path3_fill" transform="translate(23605.6 6254.93)" fill="#EE64A4"/>
</g>
</g>
</g>
</g>
</g>
</g>
<defs>
<path id="path0_fill" fill-rule="evenodd" d="M 17.3053 13.1064C 16.9352 13.1064 16.6998 13.2646 16.567 13.3975L 15.0836 14.8818C 15.0719 14.8936 15.0084 14.9248 14.862 14.9248C 14.0446 14.9248 12.3092 14.0156 10.5729 12.2783C 8.23891 9.94531 7.72426 8.0127 7.96938 7.76758L 9.45375 6.28418C 10.4323 5.30566 8.70082 3.28223 7.58168 2.16309C 7.07387 1.65527 5.33071 0 4.19985 0C 3.82973 0 3.59438 0.158203 3.46156 0.291016L 0.492815 3.25977C -0.39781 4.15039 -0.0804275 5.87988 1.43813 8.39941C 2.74867 10.5752 4.82094 13.124 7.27406 15.5771C 10.8961 19.1992 15.6959 22.8545 18.2536 22.8545L 18.2545 22.8545C 18.9498 22.8545 19.3659 22.585 19.5914 22.3584L 22.5602 19.3896C 23.5387 18.4121 21.8073 16.3887 20.6881 15.2695C 20.1803 14.7617 18.4372 13.1064 17.3053 13.1064ZM 18.5318 21.2979C 18.5103 21.3193 18.4283 21.3545 18.2545 21.3545C 16.7613 21.3545 12.7769 18.958 8.33552 14.5166C 5.96637 12.1475 3.97321 9.7002 2.72321 7.62598C 1.32673 5.30664 1.44587 4.42871 1.55427 4.32031L 4.33063 1.54395C 4.70075 1.69531 5.52985 2.23145 6.52204 3.22363C 7.5152 4.2168 8.05036 5.0459 8.20173 5.41504L 6.90973 6.70703C 5.52594 8.09277 7.28962 11.1162 9.51325 13.3389C 11.4156 15.2422 13.4654 16.4248 14.8629 16.4248C 15.523 16.4248 15.9244 16.1631 16.1451 15.9424L 17.4371 14.6504C 17.8062 14.8018 18.6353 15.3369 19.6285 16.3301C 20.6207 17.3232 21.1568 18.1514 21.3082 18.5215L 18.5318 21.2979Z"/>
<path id="path1_fill" fill-rule="evenodd" d="M 6.87207 2.5332C 5.23926 0.899414 3.06543 0 0.751953 0C 0.750977 0 0.75 0 0.75 0C 0.335938 0 0 0.335938 0 0.75C 0 1.16406 0.335938 1.5 0.75 1.5C 0.750977 1.5 0.750977 1.5 0.751953 1.5C 2.66504 1.5 4.46191 2.24316 5.81152 3.59375C 7.16211 4.94434 7.90527 6.74121 7.90527 8.65527C 7.90527 9.06934 8.24121 9.40527 8.65527 9.40527C 9.06934 9.40527 9.40527 9.06934 9.40527 8.65527C 9.40625 6.34082 8.50586 4.16699 6.87207 2.5332Z"/>
<path id="path2_fill" fill-rule="evenodd" d="M 0.75 1.5C 0.750977 1.5 0.750977 1.5 0.751953 1.5C 2.13672 1.5 3.43652 2.03809 4.41406 3.01465C 5.39062 3.99219 5.92871 5.29297 5.92871 6.67871C 5.92871 7.09277 6.26465 7.42871 6.67871 7.42871C 7.09277 7.42871 7.42871 7.09277 7.42871 6.67871C 7.42969 4.89258 6.73535 3.21484 5.47461 1.9541C 4.21387 0.694336 2.53711 0 0.751953 0C 0.750977 0 0.75 0 0.75 0C 0.335938 0 0 0.335938 0 0.75C 0 1.16406 0.335938 1.5 0.75 1.5Z"/>
<path id="path3_fill" fill-rule="evenodd" d="M 0.75 1.5C 0.750977 1.5 0.750977 1.5 0.751953 1.5C 1.60742 1.5 2.41211 1.83301 3.01562 2.43652C 3.62012 3.04102 3.95215 3.8457 3.95215 4.70215C 3.95215 5.11621 4.28809 5.45215 4.70215 5.45215C 5.11621 5.45215 5.45215 5.11621 5.45215 4.70215C 5.45312 3.44531 4.96387 2.26367 4.07617 1.37598C 3.18945 0.488281 2.00879 0 0.751953 0C 0.750977 0 0.75 0 0.75 0C 0.335938 0 0 0.335938 0 0.75C 0 1.16406 0.335937 1.5 0.75 1.5Z"/>
</defs>
</svg>
