<svg width="32" height="32" viewBox="0 0 32 32" version="1.1" xmlns="http://www.w3.org/2000/svg" xmlns:xlink="http://www.w3.org/1999/xlink">
<title>icon_pink_mail</title>
<desc>Created using Figma</desc>
<g id="Canvas" transform="translate(-23589 -6400)">
<g id="icon_pink_mail">
<g id="maill">
<g id="Shape">
<use xlink:href="#path0_fill" transform="translate(23593 6406)" fill="#EE64A4"/>
<mask id="mask0_outline_ins">
<use xlink:href="#path0_fill" fill="white" transform="translate(23593 6406)"/>
</mask>
<g mask="url(#mask0_outline_ins)">
<use xlink:href="#path1_stroke_2x" transform="translate(23593 6406)" fill="#FFFFFF"/>
</g>
</g>
</g>
</g>
</g>
<defs>
<path id="path0_fill" fill-rule="evenodd" d="M 24 2.27295L 24 17.7271C 24 18.3521 23.791 18.8872 23.3711 19.3325C 22.9512 19.7773 22.4473 20 21.8574 20L 2.14258 20C 1.55273 20 1.04883 19.7773 0.628906 19.3325C 0.208984 18.8872 0 18.3521 0 17.7271L 0 2.27295C 0 1.64795 0.208984 1.11279 0.628906 0.66748C 1.04883 0.222656 1.55273 0 2.14258 0L 21.8574 0C 22.4473 0 22.9512 0.222656 23.3711 0.66748C 23.791 1.11279 24 1.64795 24 2.27295ZM 22.2871 17.7275L 22.2871 6.81836C 22 7.15918 21.6934 7.47168 21.3613 7.75586C 18.9688 9.70654 17.0684 11.3071 15.6562 12.5571C 15.2012 12.9644 14.8301 13.2812 14.5449 13.5088C 14.2598 13.7358 13.873 13.9658 13.3867 14.1978C 12.9004 14.4297 12.4434 14.5454 12.0137 14.5454C 11.5586 14.5454 11.1016 14.4297 10.6152 14.1978C 10.127 13.9658 9.74219 13.7358 9.45508 13.5088C 9.16992 13.2812 8.79883 12.9644 8.34375 12.5571C 6.93359 11.3071 5.03125 9.70654 2.63867 7.75586C 2.30859 7.47168 2 7.15918 1.71484 6.81836L 1.71484 17.7275C 1.71484 17.8506 1.75781 17.957 1.8418 18.0469C 1.92773 18.1372 2.02734 18.1821 2.14258 18.1821L 21.8574 18.1821C 21.9746 18.1821 22.0742 18.1372 22.1582 18.0469C 22.2441 17.957 22.2871 17.8506 22.2871 17.7275ZM 22.2871 2.45068L 22.2871 2.79834C 22.2871 3.35742 22.0781 3.97998 21.6641 4.6665C 21.248 5.35303 20.7988 5.8999 20.3184 6.30713C 18.5938 7.74658 16.8047 9.24756 14.9473 10.8101L 14.4785 11.229C 14.2188 11.4609 14.0137 11.6387 13.8613 11.7617C 13.7109 11.8848 13.5117 12.0337 13.2656 12.209C 13.0215 12.3843 12.7949 12.5142 12.5898 12.5996C 12.3848 12.6851 12.1934 12.7275 11.9863 12.7275C 11.8086 12.7275 11.6172 12.6851 11.4121 12.5996C 11.2051 12.5142 10.9805 12.3843 10.7344 12.209C 10.4902 12.0337 10.291 11.8848 10.1387 11.7617C 9.98633 11.6387 9.78125 11.4609 9.52344 11.229L 9.05469 10.8101C 7.19727 9.24756 5.40625 7.74658 3.68359 6.30713C 2.37109 5.2085 1.71484 3.86377 1.71484 2.27295C 1.71484 2.1499 1.75781 2.04346 1.8418 1.95312C 1.92773 1.86328 2.02734 1.81836 2.14258 1.81836L 21.8574 1.81836L 22.0449 1.854L 22.166 1.96045L 22.2402 2.08838L 22.2793 2.26562L 22.2871 2.45068Z"/>
<path id="path1_stroke_2x" d="M 23.3711 19.3325L 23.4438 19.4012L 23.4438 19.4011L 23.3711 19.3325ZM 0.628906 19.3325L 0.556152 19.4011L 0.556189 19.4012L 0.628906 19.3325ZM 0.628906 0.66748L 0.556189 0.598835L 0.556152 0.598874L 0.628906 0.66748ZM 23.3711 0.66748L 23.4438 0.598874L 23.4438 0.598835L 23.3711 0.66748ZM 22.2871 6.81836L 22.3871 6.81836L 22.3871 6.54444L 22.2106 6.75393L 22.2871 6.81836ZM 21.3613 7.75586L 21.4245 7.83339L 21.4264 7.83183L 21.3613 7.75586ZM 15.6562 12.5571L 15.59 12.4823L 15.5896 12.4826L 15.6562 12.5571ZM 14.5449 13.5088L 14.6072 13.587L 14.6073 13.587L 14.5449 13.5088ZM 10.6152 14.1978L 10.6583 14.1075L 10.6581 14.1074L 10.6152 14.1978ZM 9.45508 13.5088L 9.39271 13.587L 9.39305 13.5872L 9.45508 13.5088ZM 8.34375 12.5571L 8.41043 12.4826L 8.41008 12.4823L 8.34375 12.5571ZM 2.63867 7.75586L 2.5734 7.83167L 2.57548 7.83336L 2.63867 7.75586ZM 1.71484 6.81836L 1.79154 6.75419L 1.61484 6.543L 1.61484 6.81836L 1.71484 6.81836ZM 1.8418 18.0469L 1.76874 18.1152L 1.76935 18.1158L 1.8418 18.0469ZM 22.1582 18.0469L 22.0859 17.9777L 22.085 17.9788L 22.1582 18.0469ZM 22.2871 2.45068L 22.3872 2.45068L 22.387 2.44647L 22.2871 2.45068ZM 21.6641 4.6665L 21.7496 4.71833L 21.7497 4.71815L 21.6641 4.6665ZM 20.3184 6.30713L 20.3824 6.3839L 20.383 6.38341L 20.3184 6.30713ZM 14.9473 10.8101L 14.8829 10.7335L 14.8806 10.7355L 14.9473 10.8101ZM 14.4785 11.229L 14.5451 11.3036L 14.5452 11.3036L 14.4785 11.229ZM 13.8613 11.7617L 13.7985 11.6839L 13.798 11.6843L 13.8613 11.7617ZM 13.2656 12.209L 13.2076 12.1275L 13.2073 12.1278L 13.2656 12.209ZM 11.4121 12.5996L 11.4506 12.5073L 11.4503 12.5072L 11.4121 12.5996ZM 10.7344 12.209L 10.6761 12.2902L 10.6764 12.2904L 10.7344 12.209ZM 9.52344 11.229L 9.59032 11.1547L 9.59008 11.1544L 9.52344 11.229ZM 9.05469 10.8101L 9.12136 10.7355L 9.11906 10.7335L 9.05469 10.8101ZM 3.68359 6.30713L 3.61941 6.38381L 3.61947 6.38387L 3.68359 6.30713ZM 1.8418 1.95312L 1.76953 1.884L 1.76856 1.88503L 1.8418 1.95312ZM 21.8574 1.81836L 21.8761 1.72012L 21.8668 1.71836L 21.8574 1.71836L 21.8574 1.81836ZM 22.0449 1.854L 22.1109 1.7789L 22.0904 1.76086L 22.0636 1.75576L 22.0449 1.854ZM 22.166 1.96045L 22.2525 1.91027L 22.2443 1.89613L 22.232 1.88534L 22.166 1.96045ZM 22.2402 2.08838L 22.3379 2.06686L 22.3345 2.05166L 22.3267 2.0382L 22.2402 2.08838ZM 22.2793 2.26562L 22.3792 2.26141L 22.3788 2.25266L 22.377 2.2441L 22.2793 2.26562ZM 24.1 17.7271L 24.1 2.27295L 23.9 2.27295L 23.9 17.7271L 24.1 17.7271ZM 23.4438 19.4011C 23.8818 18.9367 24.1 18.3768 24.1 17.7271L 23.9 17.7271C 23.9 18.3273 23.7003 18.8377 23.2983 19.2639L 23.4438 19.4011ZM 21.8574 20.1C 22.476 20.1 23.0058 19.8651 23.4438 19.4012L 23.2984 19.2639C 22.8965 19.6896 22.4185 19.9 21.8574 19.9L 21.8574 20.1ZM 2.14258 20.1L 21.8574 20.1L 21.8574 19.9L 2.14258 19.9L 2.14258 20.1ZM 0.556189 19.4012C 0.994157 19.8651 1.524 20.1 2.14258 20.1L 2.14258 19.9C 1.58146 19.9 1.1035 19.6896 0.701623 19.2639L 0.556189 19.4012ZM -0.1 17.7271C -0.1 18.3768 0.118248 18.9367 0.556152 19.4011L 0.701661 19.2639C 0.299721 18.8377 0.1 18.3273 0.1 17.7271L -0.1 17.7271ZM -0.1 2.27295L -0.1 17.7271L 0.1 17.7271L 0.1 2.27295L -0.1 2.27295ZM 0.556152 0.598874C 0.118248 1.06326 -0.1 1.62316 -0.1 2.27295L 0.1 2.27295C 0.1 1.67274 0.299721 1.16233 0.701661 0.736087L 0.556152 0.598874ZM 2.14258 -0.1C 1.524 -0.1 0.994157 0.134895 0.556189 0.598835L 0.701623 0.736126C 1.1035 0.310418 1.58146 0.1 2.14258 0.1L 2.14258 -0.1ZM 21.8574 -0.1L 2.14258 -0.1L 2.14258 0.1L 21.8574 0.1L 21.8574 -0.1ZM 23.4438 0.598835C 23.0058 0.134895 22.476 -0.1 21.8574 -0.1L 21.8574 0.1C 22.4185 0.1 22.8965 0.310418 23.2984 0.736126L 23.4438 0.598835ZM 24.1 2.27295C 24.1 1.62316 23.8818 1.06326 23.4438 0.598874L 23.2983 0.736087C 23.7003 1.16233 23.9 1.67274 23.9 2.27295L 24.1 2.27295ZM 22.1871 6.81836L 22.1871 17.7275L 22.3871 17.7275L 22.3871 6.81836L 22.1871 6.81836ZM 21.4264 7.83183C 21.7628 7.54385 22.0733 7.22743 22.3636 6.88279L 22.2106 6.75393C 21.9267 7.09093 21.6239 7.39951 21.2963 7.67989L 21.4264 7.83183ZM 15.7225 12.632C 17.1332 11.3833 19.0325 9.78363 21.4245 7.83336L 21.2981 7.67835C 18.905 9.62946 17.0035 11.231 15.59 12.4823L 15.7225 12.632ZM 14.6073 13.587C 14.8945 13.3578 15.2671 13.0395 15.7229 12.6316L 15.5896 12.4826C 15.1352 12.8892 14.7657 13.2047 14.4826 13.4306L 14.6073 13.587ZM 13.4298 14.288C 13.92 14.0542 14.314 13.8205 14.6072 13.587L 14.4826 13.4306C 14.2055 13.6512 13.8261 13.8774 13.3437 14.1075L 13.4298 14.288ZM 12.0137 14.6454C 12.4615 14.6454 12.9333 14.5248 13.4298 14.288L 13.3437 14.1075C 12.8675 14.3346 12.4252 14.4454 12.0137 14.4454L 12.0137 14.6454ZM 10.5722 14.288C 11.0691 14.525 11.5408 14.6454 12.0137 14.6454L 12.0137 14.4454C 11.5764 14.4454 11.134 14.3344 10.6583 14.1075L 10.5722 14.288ZM 9.39305 13.5872C 9.68796 13.8204 10.0798 14.0541 10.5723 14.2881L 10.6581 14.1074C 10.1741 13.8775 9.79642 13.6512 9.51711 13.4304L 9.39305 13.5872ZM 8.27707 12.6316C 8.73288 13.0395 9.10551 13.3578 9.39271 13.587L 9.51745 13.4306C 9.23433 13.2047 8.86478 12.8892 8.41043 12.4826L 8.27707 12.6316ZM 2.57548 7.83336C 4.96758 9.78366 6.86873 11.3833 8.27742 12.632L 8.41008 12.4823C 6.99845 11.231 5.09492 9.62943 2.70186 7.67835L 2.57548 7.83336ZM 1.63815 6.88253C 1.9268 7.22752 2.23922 7.54391 2.57343 7.83164L 2.70392 7.68008C 2.37797 7.39945 2.0732 7.09084 1.79154 6.75419L 1.63815 6.88253ZM 1.81484 17.7275L 1.81484 6.81836L 1.61484 6.81836L 1.61484 17.7275L 1.81484 17.7275ZM 1.91485 17.9786C 1.8478 17.9069 1.81484 17.8247 1.81484 17.7275L 1.61484 17.7275C 1.61484 17.8765 1.66782 18.0072 1.76874 18.1152L 1.91485 17.9786ZM 2.14258 18.0821C 2.05724 18.0821 1.98311 18.0503 1.91425 17.9779L 1.76935 18.1158C 1.87235 18.2241 1.99744 18.2821 2.14258 18.2821L 2.14258 18.0821ZM 21.8574 18.0821L 2.14258 18.0821L 2.14258 18.2821L 21.8574 18.2821L 21.8574 18.0821ZM 22.085 17.9788C 22.0187 18.0501 21.9451 18.0821 21.8574 18.0821L 21.8574 18.2821C 22.0041 18.2821 22.1297 18.2244 22.2314 18.115L 22.085 17.9788ZM 22.1871 17.7275C 22.1871 17.8245 22.1543 17.9063 22.0859 17.9778L 22.2305 18.116C 22.334 18.0078 22.3871 17.8766 22.3871 17.7275L 22.1871 17.7275ZM 22.3871 2.79834L 22.3871 2.45068L 22.1871 2.45068L 22.1871 2.79834L 22.3871 2.79834ZM 21.7497 4.71815C 22.1692 4.02264 22.3871 3.38204 22.3871 2.79834L 22.1871 2.79834C 22.1871 3.33281 21.9871 3.93732 21.5784 4.61486L 21.7497 4.71815ZM 20.383 6.38341C 20.8736 5.96764 21.3294 5.41174 21.7496 4.71833L 21.5785 4.61468C 21.1667 5.29432 20.7241 5.83216 20.2537 6.23084L 20.383 6.38341ZM 15.0116 10.8866C 16.869 9.32413 18.658 7.82325 20.3824 6.3839L 20.2543 6.23036C 18.5295 7.66992 16.7404 9.17098 14.8829 10.7335L 15.0116 10.8866ZM 14.5452 11.3036L 15.0139 10.8846L 14.8806 10.7355L 14.4119 11.1544L 14.5452 11.3036ZM 13.9242 11.8395C 14.0785 11.7148 14.2851 11.5358 14.5451 11.3036L 14.4119 11.1544C 14.1524 11.3861 13.9488 11.5625 13.7985 11.6839L 13.9242 11.8395ZM 13.3236 12.2904C 13.5705 12.1146 13.7717 11.9642 13.9247 11.8391L 13.798 11.6843C 13.6501 11.8053 13.453 11.9528 13.2076 12.1275L 13.3236 12.2904ZM 12.6283 12.6919C 12.8421 12.6028 13.0753 12.4687 13.3239 12.2902L 13.2073 12.1278C 12.9677 12.2998 12.7478 12.4255 12.5514 12.5073L 12.6283 12.6919ZM 11.9863 12.8275C 12.2084 12.8275 12.4128 12.7817 12.6283 12.6919L 12.5514 12.5073C 12.3567 12.5884 12.1783 12.6275 11.9863 12.6275L 11.9863 12.8275ZM 11.3736 12.6919C 11.5881 12.7813 11.7926 12.8275 11.9863 12.8275L 11.9863 12.6275C 11.8246 12.6275 11.6463 12.5889 11.4506 12.5073L 11.3736 12.6919ZM 10.6764 12.2904C 10.9265 12.4686 11.1578 12.6028 11.374 12.692L 11.4503 12.5072C 11.2523 12.4255 11.0344 12.2999 10.7924 12.1275L 10.6764 12.2904ZM 10.0758 11.8395C 10.2303 11.9643 10.4313 12.1145 10.6761 12.2902L 10.7927 12.1278C 10.5492 11.9529 10.3517 11.8052 10.2015 11.6839L 10.0758 11.8395ZM 9.45656 11.3033C 9.71481 11.5357 9.92143 11.7148 10.0758 11.8395L 10.2015 11.6839C 10.0512 11.5625 9.84769 11.3862 9.59032 11.1547L 9.45656 11.3033ZM 8.98805 10.8846L 9.4568 11.3036L 9.59008 11.1544L 9.12133 10.7355L 8.98805 10.8846ZM 3.61947 6.38387C 5.34205 7.82325 7.13298 9.32416 8.99031 10.8866L 9.11906 10.7335C 7.26155 9.17096 5.47045 7.66991 3.74771 6.23039L 3.61947 6.38387ZM 1.61484 2.27295C 1.61484 3.89584 2.28617 5.26782 3.61941 6.38381L 3.74778 6.23045C 2.45602 5.14917 1.81484 3.8317 1.81484 2.27295L 1.61484 2.27295ZM 1.76856 1.88503C 1.66785 1.99336 1.61484 2.12395 1.61484 2.27295L 1.81484 2.27295C 1.81484 2.17585 1.84778 2.09355 1.91503 2.02122L 1.76856 1.88503ZM 2.14258 1.71836C 1.99749 1.71836 1.87249 1.77637 1.76953 1.884L 1.91406 2.02225C 1.98298 1.9502 2.0572 1.91836 2.14258 1.91836L 2.14258 1.71836ZM 21.8574 1.71836L 2.14258 1.71836L 2.14258 1.91836L 21.8574 1.91836L 21.8574 1.71836ZM 22.0636 1.75576L 21.8761 1.72012L 21.8387 1.9166L 22.0262 1.95224L 22.0636 1.75576ZM 22.232 1.88534L 22.1109 1.7789L 21.9789 1.92911L 22.1 2.03556L 22.232 1.88534ZM 22.3267 2.0382L 22.2525 1.91027L 22.0795 2.01063L 22.1537 2.13856L 22.3267 2.0382ZM 22.377 2.2441L 22.3379 2.06686L 22.1426 2.1099L 22.1816 2.28715L 22.377 2.2441ZM 22.387 2.44647L 22.3792 2.26141L 22.1794 2.26984L 22.1872 2.4549L 22.387 2.44647Z"/>
</defs>
</svg>
