<svg width="12" height="12" viewBox="0 0 12 12" version="1.1" xmlns="http://www.w3.org/2000/svg" xmlns:xlink="http://www.w3.org/1999/xlink">
<g id="Canvas" fill="none">
<g id="Crest">
<g id="Rectangle 5 Copy">
<path fill-rule="evenodd" clip-rule="evenodd" d="M 0 0.740741C 0 0.331641 0.331641 0 0.740741 0L 14.0741 0C 14.4832 0 14.8148 0.331641 14.8148 0.740741C 14.8148 1.14984 14.4832 1.48148 14.0741 1.48148L 0.74074 1.48148C 0.331641 1.48148 0 1.14984 0 0.740741Z" transform="matrix(0.707107 -0.707107 0.707107 0.707107 0.238037 10.7141)" fill="#EE64A4"/>
</g>
<g id="Rectangle 5 Copy 2">
<path fill-rule="evenodd" clip-rule="evenodd" d="M 0 0.740741C 0 0.331641 0.331641 0 0.740741 0L 14.0741 0C 14.4832 0 14.8148 0.331641 14.8148 0.740741C 14.8148 1.14984 14.4832 1.48148 14.0741 1.48148L 0.74074 1.48148C 0.331641 1.48148 0 1.14984 0 0.740741Z" transform="matrix(0.707107 0.707107 -0.707107 0.707107 1.28564 0.238403)" fill="#EE64A4"/>
</g>
</g>
</g>
</svg>

