<svg width="12" height="12" viewBox="0 0 12 12" version="1.1" xmlns="http://www.w3.org/2000/svg" xmlns:xlink="http://www.w3.org/1999/xlink">
<g data-name="Canvas" fill="none">
<g data-name="search">
<g data-name="Shape">
<g transform="scale(0.925714)">
<path fill-rule="evenodd" clip-rule="evenodd" d="M 9.25926 8.14815L 8.66667 8.14815L 8.44444 7.92593C 9.18519 7.11111 9.62963 6 9.62963 4.81482C 9.62963 2.14815 7.48148 0 4.81482 0C 2.14815 0 0 2.14815 0 4.81482C 0 7.48148 2.14815 9.62963 4.81482 9.62963C 6 9.62963 7.11111 9.18519 7.92593 8.44444L 8.14815 8.66667L 8.14815 9.25926L 11.8519 12.963L 12.963 11.8519L 9.25926 8.14815ZM 4.81576 8.14811C 2.9639 8.14811 1.48242 6.66663 1.48242 4.81478C 1.48242 2.96293 2.9639 1.48145 4.81576 1.48145C 6.66761 1.48145 8.14909 2.96293 8.14909 4.81478C 8.14909 6.66663 6.66761 8.14811 4.81576 8.14811Z" fill="white"/>
</g>
</g>
</g>
</g>
</svg>

