<svg width="14" height="11" viewBox="0 0 14 11" version="1.1" xmlns="http://www.w3.org/2000/svg" xmlns:xlink="http://www.w3.org/1999/xlink">
<title>Shape</title>
<desc>Created using Figma</desc>
<g id="Canvas" transform="translate(-20255 -4149)">
<g id="Shape">
<use xlink:href="#path0_fill" transform="translate(20255 4149)" fill="#FFFFFF"/>
</g>
</g>
<defs>
<path id="path0_fill" fill-rule="evenodd" d="M 0.7 6.18147L 11.6102 6.18147L 7.8554 9.83683C 7.58205 10.1029 7.58205 10.5345 7.85523 10.8004C 8.12858 11.0665 8.57203 11.0665 8.84538 10.8004L 13.7949 5.9818C 13.8274 5.95012 13.8565 5.91519 13.882 5.87805C 13.8938 5.86084 13.902 5.84227 13.9122 5.82439C 13.9237 5.80326 13.937 5.78316 13.9463 5.76084C 13.9563 5.73784 13.9619 5.71399 13.9689 5.69014C 13.9746 5.67123 13.9821 5.65317 13.9862 5.63375C 13.9953 5.58945 14 5.54482 14 5.50001C 14 5.4995 13.9998 5.49899 13.9998 5.49848C 13.9996 5.45435 13.9951 5.41006 13.9862 5.36661C 13.982 5.34617 13.9741 5.32726 13.968 5.30716C 13.9611 5.2845 13.9559 5.2615 13.9465 5.23952C 13.9363 5.21584 13.9227 5.19438 13.9101 5.17206C 13.9006 5.15536 13.8931 5.13833 13.8822 5.12231C 13.8567 5.08466 13.8273 5.04956 13.7945 5.01771L 8.8452 0.199604C 8.57185 -0.0665064 8.12858 -0.0665064 7.85523 0.199434C 7.58187 0.465545 7.58187 0.89708 7.85523 1.16336L 11.61 4.81855L 0.7 4.81855C 0.313425 4.81855 0 5.12367 0 5.50001C 0 5.87635 0.313425 6.18147 0.7 6.18147Z"/>
</defs>
</svg>
