<svg width="24" height="29" viewBox="0 0 24 29" version="1.1" xmlns="http://www.w3.org/2000/svg" xmlns:xlink="http://www.w3.org/1999/xlink">
<title>Shape Copy</title>
<desc>Created using Figma</desc>
<g id="Canvas" transform="translate(-20627 -4441)">
<g id="Shape Copy">
<use xlink:href="#path0_fill" transform="matrix(-1.83697e-16 1 -1 -1.83697e-16 20650.3 4441.3)" fill="#D7D7E0"/>
</g>
</g>
<defs>
<path id="path0_fill" fill-rule="evenodd" d="M 1.4 12.6993L 23.2204 12.6993L 15.7108 20.2089C 15.1641 20.7556 15.1641 21.6421 15.7105 22.1885C 16.2572 22.7352 17.1441 22.7352 17.6908 22.1885L 27.5898 12.2891C 27.6549 12.224 27.713 12.1522 27.7641 12.0759C 27.7875 12.0406 27.804 12.0024 27.8243 11.9657C 27.8474 11.9223 27.874 11.881 27.8925 11.8351C 27.9125 11.7879 27.9237 11.7389 27.9377 11.6899C 27.9493 11.651 27.9643 11.6139 27.9723 11.574C 27.9905 11.483 28 11.3913 28 11.2993C 28 11.2982 27.9996 11.2972 27.9996 11.2961C 27.9993 11.2055 27.9902 11.1145 27.9723 11.0252C 27.9639 10.9832 27.9482 10.9444 27.9359 10.9031C 27.9223 10.8565 27.9118 10.8093 27.8929 10.7641C 27.8726 10.7155 27.8453 10.6714 27.8201 10.6255C 27.8012 10.5912 27.7861 10.5562 27.7645 10.5233C 27.7134 10.446 27.6546 10.3739 27.5891 10.3084L 17.6904 0.410069C 17.1437 -0.136631 16.2572 -0.136631 15.7105 0.409719C 15.1637 0.956419 15.1637 1.84297 15.7105 2.39002L 23.2201 9.89927L 1.4 9.89927C 0.62685 9.89927 0 10.5261 0 11.2993C 0 12.0724 0.62685 12.6993 1.4 12.6993Z"/>
</defs>
</svg>
