<svg width="16" height="16" viewBox="0 0 16 16" version="1.1" xmlns="http://www.w3.org/2000/svg" xmlns:xlink="http://www.w3.org/1999/xlink">
<g id="Canvas" fill="none">
<g id="Crest">
<g id="Rectangle 5 Copy">
<path fill-rule="evenodd" clip-rule="evenodd" d="M 0 0.962963C 0 0.431133 0.431133 0 0.962963 0L 18.2963 0C 18.8281 0 19.2593 0.431133 19.2593 0.962963C 19.2593 1.49479 18.8281 1.92593 18.2963 1.92593L 0.962963 1.92593C 0.431134 1.92593 0 1.49479 0 0.962963Z" transform="matrix(0.707107 -0.707107 0.707107 0.707107 0.509766 14.1284)" fill="#EE64A4"/>
</g>
<g id="Rectangle 5 Copy 2">
<path fill-rule="evenodd" clip-rule="evenodd" d="M 0 0.962963C 0 0.431133 0.431133 0 0.962963 0L 18.2963 0C 18.8281 0 19.2593 0.431133 19.2593 0.962963C 19.2593 1.49479 18.8281 1.92593 18.2963 1.92593L 0.962963 1.92593C 0.431134 1.92593 0 1.49479 0 0.962963Z" transform="matrix(0.707107 0.707107 -0.707107 0.707107 1.87109 0.51001)" fill="#EE64A4"/>
</g>
</g>
</g>
</svg>

