<?xml version="1.0" encoding="UTF-8"?>
<svg width="98px" height="98px" viewBox="0 0 98 98" version="1.1" xmlns="http://www.w3.org/2000/svg" xmlns:xlink="http://www.w3.org/1999/xlink">
    <!-- Generator: sketchtool 49.1 (51147) - http://www.bohemiancoding.com/sketch -->
    <title>C1D59DD0-D86C-4A37-B048-B8E88D6CABE2</title>
    <desc>Created with sketchtool.</desc>
    <defs></defs>
    <g id="Page-1" stroke="none" stroke-width="1" fill="none" fill-rule="evenodd" stroke-linecap="round" stroke-linejoin="round">
        <g id="002_Search_step2" transform="translate(-911.000000, -604.000000)" stroke="#EE64A4" stroke-width="2">
            <g id="Header" transform="translate(0.000000, -53.000000)">
                <g id="TopMenu" transform="translate(0.000000, 56.000000)">
                    <g id="Burger_close-Copy" transform="translate(912.000000, 602.000000)">
                        <path d="M3.64193398,29.6269829 C1.29521351,35.2863375 0,41.4919121 0,48 C0,54.5080879 1.29521351,60.7136625 3.64193398,66.3730171 M21.3313973,87.9157758 C23.928621,89.6544846 26.7049971,91.146429 29.6269829,92.358066 C35.2863375,94.7047865 41.4919121,96 48,96 C54.5080879,96 60.7136625,94.7047865 66.3730171,92.358066 C69.2950029,91.146429 72.071379,89.6544846 74.6686027,87.9157758 M87.9157758,74.6686027 C89.6544846,72.071379 91.146429,69.2950029 92.358066,66.3730171 C94.7047865,60.7136625 96,54.5080879 96,48 C96,41.4919121 94.7047865,35.2863375 92.358066,29.6269829 C91.146429,26.7049971 89.6544846,23.928621 87.9157758,21.3313973 M74.6686027,8.08422423 C72.071379,6.3455154 69.2950029,4.85357101 66.3730171,3.64193398 C60.7136625,1.29521351 54.5080879,0 48,0 C41.4919121,0 35.2863375,1.29521351 29.6269829,3.64193398 C26.7049971,4.85357101 23.928621,6.3455154 21.3313973,8.08422423" id="Oval-Copy-2"></path>
                    </g>
                </g>
            </g>
        </g>
    </g>
</svg>